M48
;Layer_Color=9474304
;FILE_FORMAT=4:3
METRIC
;TYPE=PLATED
T1F00S00C0.300
T2F00S00C0.900
T3F00S00C1.000
T4F00S00C1.500
%
T01
X0060590Y0079210
X0062080Y0079200
X0061340Y0079950
X0062080Y0080750
X0060590
X0059140Y0082210
Y0083700
X0057590
Y0082210
X0058340Y0082950
X0057610Y0087050
X0057600Y0088070
X0058480
X0059360
X0058920Y0088650
X0058040
X0058480Y0089230
X0059360
X0060240
X0059800Y0089810
X0058920
X0058040
X0058480Y0090390
X0057600
Y0091380
X0058480
X0059360
X0060240
X0061100
X0061900
X0062700
X0062300Y0091990
X0061500
X0061100Y0092600
X0061900
X0062700
X0064480
X0065220
X0065960
X0065590Y0091990
X0064850
X0064480Y0091380
X0065220
X0065960
X0066800Y0091100
X0067560Y0091560
Y0092420
X0068120Y0092850
Y0091990
Y0091130
X0068280Y0089400
Y0088700
Y0088000
X0069040
Y0088700
Y0089400
X0067520
Y0088700
X0066800Y0089400
X0065840Y0088340
X0066390Y0087790
X0065840Y0087240
X0065290Y0087790
X0064190
X0064740Y0087240
X0063640
X0062550
X0063090Y0087790
X0062550Y0088340
X0063640
X0063600Y0089280
X0064740Y0088340
X0067040Y0087240
X0069040Y0087290
X0070010
X0073050Y0086650
Y0085900
Y0085150
X0074100Y0085250
Y0086050
X0075400
Y0085250
X0076840
X0076850Y0086310
X0076530Y0087980
X0077810Y0088600
X0078490
X0076100Y0091020
X0074800
X0073500
Y0092320
X0074800
X0076100
Y0093620
X0074800
X0073500
X0069100Y0094560
X0068340
X0067580
Y0095320
X0068340
X0069100
X0069460Y0096130
X0070490Y0096140
X0070010Y0095590
X0070010Y0096690
X0068900Y0096680
X0068390Y0096090
X0066850Y0096740
X0065750
X0066300Y0096190
X0065750Y0095640
X0064650
X0063580
X0063620Y0094690
X0064120Y0096190
X0063060
X0062550Y0096740
X0063580
X0064650
X0065200Y0096190
X0062550Y0095640
X0060240Y0094750
X0059360
X0058480
X0057600
X0058040Y0095330
X0058920
X0058480Y0095910
X0059360
X0057600
Y0096990
X0060240
X0059800Y0094170
X0058920
X0058040
X0058480Y0093590
X0059360
X0060240
Y0092600
X0059360
X0058480
X0057600
Y0093590
Y0089230
X0059360Y0090390
X0060240
Y0087050
X0063540Y0083700
Y0082210
X0065080
X0064340Y0082950
X0065080Y0083700
X0070280Y0080900
X0071180
X0072080
X0072100Y0089620
X0066800Y0092880
Y0094520
X0065090Y0100340
X0064340Y0101080
X0065080Y0101830
X0063540
Y0100340
X0062090Y0103280
X0060590
X0061340Y0104080
X0062080Y0104830
X0060590
X0059140Y0101830
Y0100330
X0057580
X0057590Y0101830
X0058340Y0101090
X0076850Y0095820
X0077650Y0095820
X0078530Y0096730
X0085000Y0097910
Y0099160
Y0100410
Y0101660
Y0102910
Y0104160
X0084780Y0105600
X0083705Y0105625
X0083700Y0106700
X0083150Y0107240
Y0106160
X0083690Y0107790
X0084780Y0107800
X0087600Y0104160
X0087600Y0102920
X0087590Y0101660
X0087600Y0100410
Y0099160
Y0097910
Y0093950
Y0092650
Y0091350
X0088500Y0092000
Y0090700
Y0093300
X0085000Y0093940
Y0092650
Y0091350
Y0089920
X0084100Y0090700
Y0092000
Y0093300
X0080980Y0088050
Y0087350
Y0086570
Y0085870
X0080990Y0085080
X0080200
X0083390Y0080900
X0084290
X0085390
X0098200Y0080700
X0099200Y0081900
Y0085420
X0097200Y0087960
X0098200Y0089230
X0096200Y0089260
X0093080Y0089920
X0100200
Y0091770
Y0094310
X0098200Y0095580
X0096200Y0095800
Y0096950
X0099200Y0098120
Y0099160
X0100200Y0100410
X0099200Y0103200
X0098200Y0102910
X0097200Y0104160
T02
X0102100Y0080340
X0104640
Y0082880
X0102100
Y0085420
X0104640
Y0087960
X0102100
Y0090500
X0104640
Y0093040
X0102100
Y0095580
X0104640
Y0098120
X0102100
Y0100660
X0104640
Y0103200
X0102100
T03
X0081990Y0078700
X0086290
X0093100
X0077690
X0073390
X0069090
Y0106700
X0073290
X0077590
X0081790
X0081800Y0095900
X0093100Y0094700
Y0091500
Y0088300
Y0085100
Y0081900
Y0097910
X0094410Y0106700
X0096950
T04
X0058840Y0080450
X0061340Y0082950
X0063840Y0080450
Y0085450
X0058840
Y0098580
X0061340Y0101080
X0058840Y0103580
X0063840
Y0098580
M30
