%FSAX43Y43*%
%MOMM*%
G71*
G01*
G75*
G04 Layer_Physical_Order=1*
G04 Layer_Color=255*
%ADD10R,0.650X0.650*%
%ADD11C,1.000*%
%ADD12R,0.650X0.650*%
%ADD13R,0.900X0.900*%
%ADD14R,1.200X1.000*%
G04:AMPARAMS|DCode=15|XSize=3.4mm|YSize=3.4mm|CornerRadius=0.085mm|HoleSize=0mm|Usage=FLASHONLY|Rotation=90.000|XOffset=0mm|YOffset=0mm|HoleType=Round|Shape=RoundedRectangle|*
%AMROUNDEDRECTD15*
21,1,3.400,3.230,0,0,90.0*
21,1,3.230,3.400,0,0,90.0*
1,1,0.170,1.615,1.615*
1,1,0.170,1.615,-1.615*
1,1,0.170,-1.615,-1.615*
1,1,0.170,-1.615,1.615*
%
%ADD15ROUNDEDRECTD15*%
%ADD16O,0.800X0.350*%
%ADD17O,0.350X0.800*%
%ADD18C,0.200*%
%ADD19C,0.400*%
%ADD20C,0.254*%
%ADD21C,0.800*%
%ADD22C,1.000*%
%ADD23C,0.350*%
%ADD24C,0.650*%
%ADD25C,0.500*%
%ADD26C,1.100*%
%ADD27C,1.600*%
%ADD28C,1.500*%
%ADD29C,2.500*%
%ADD30R,1.500X1.500*%
%ADD31C,0.500*%
G36*
X0073370Y0089440D02*
Y0088230D01*
X0071680D01*
Y0088370D01*
Y0088400D01*
X0073000Y0089720D01*
X0073370D01*
Y0089440D01*
D02*
G37*
G36*
X0063600Y0089754D02*
X0064124D01*
Y0089220D01*
X0064125Y0089205D01*
Y0088695D01*
X0064635D01*
X0064650Y0088694D01*
X0064665Y0088695D01*
X0065175D01*
Y0088695D01*
X0065175D01*
X0065175Y0088695D01*
X0065225D01*
Y0088695D01*
X0065735D01*
X0065750Y0088694D01*
X0065765Y0088695D01*
X0066275D01*
Y0089205D01*
X0066276Y0089220D01*
Y0089237D01*
X0066374Y0089254D01*
X0066383Y0089227D01*
X0066409Y0089175D01*
X0066442Y0089125D01*
X0066481Y0089081D01*
X0066499Y0089065D01*
Y0088510D01*
X0066503Y0088463D01*
X0066505Y0088452D01*
X0066514Y0088417D01*
X0066524Y0088391D01*
X0066532Y0088373D01*
X0066557Y0088333D01*
X0066587Y0088297D01*
X0068245Y0086639D01*
X0068207Y0086547D01*
X0065770D01*
Y0078520D01*
X0056910D01*
Y0087380D01*
X0059890D01*
Y0087640D01*
X0060589D01*
Y0087380D01*
Y0084190D01*
X0060556Y0084171D01*
X0060470Y0084112D01*
X0060390Y0084047D01*
X0060314Y0083976D01*
X0060243Y0083900D01*
X0060178Y0083820D01*
X0060119Y0083734D01*
X0060067Y0083645D01*
X0060020Y0083553D01*
X0059981Y0083457D01*
X0059948Y0083359D01*
X0059922Y0083258D01*
X0059904Y0083156D01*
X0059893Y0083054D01*
X0059889Y0082950D01*
X0059893Y0082846D01*
X0059904Y0082744D01*
X0059922Y0082642D01*
X0059948Y0082541D01*
X0059981Y0082443D01*
X0060020Y0082347D01*
X0060067Y0082255D01*
X0060119Y0082166D01*
X0060178Y0082080D01*
X0060243Y0082000D01*
X0060314Y0081924D01*
X0060390Y0081853D01*
X0060470Y0081788D01*
X0060556Y0081729D01*
X0060645Y0081677D01*
X0060737Y0081630D01*
X0060833Y0081591D01*
X0060931Y0081558D01*
X0061032Y0081532D01*
X0061134Y0081514D01*
X0061236Y0081503D01*
X0061340Y0081499D01*
X0061444Y0081503D01*
X0061546Y0081514D01*
X0061648Y0081532D01*
X0061749Y0081558D01*
X0061847Y0081591D01*
X0061943Y0081630D01*
X0062035Y0081677D01*
X0062124Y0081729D01*
X0062209Y0081788D01*
X0062290Y0081853D01*
X0062366Y0081924D01*
X0062437Y0082000D01*
X0062502Y0082080D01*
X0062561Y0082166D01*
X0062613Y0082255D01*
X0062660Y0082347D01*
X0062699Y0082443D01*
X0062732Y0082541D01*
X0062758Y0082642D01*
X0062776Y0082744D01*
X0062787Y0082846D01*
X0062791Y0082950D01*
X0062787Y0083054D01*
X0062776Y0083156D01*
X0062758Y0083258D01*
X0062732Y0083359D01*
X0062699Y0083457D01*
X0062660Y0083553D01*
X0062613Y0083645D01*
X0062561Y0083734D01*
X0062502Y0083820D01*
X0062437Y0083900D01*
X0062366Y0083976D01*
X0062290Y0084047D01*
X0062209Y0084112D01*
X0062124Y0084171D01*
X0062091Y0084190D01*
Y0086547D01*
Y0087849D01*
X0062091Y0087850D01*
Y0088689D01*
Y0088695D01*
X0062535D01*
X0062550Y0088694D01*
X0062565Y0088695D01*
X0063075D01*
Y0089205D01*
X0063076Y0089220D01*
Y0089754D01*
X0063600D01*
X0063600Y0089754D01*
D02*
G37*
G36*
X0072670Y0089674D02*
X0071886Y0088890D01*
X0071680D01*
Y0090190D01*
X0072670D01*
Y0089674D01*
D02*
G37*
G36*
X0074020Y0088770D02*
X0074430Y0088360D01*
Y0087700D01*
X0073630D01*
Y0088370D01*
Y0088806D01*
X0073640Y0088810D01*
X0073640D01*
Y0088810D01*
X0074020D01*
Y0088770D01*
D02*
G37*
G36*
X0075430Y0088410D02*
X0075480Y0088360D01*
X0075659D01*
X0075730Y0088289D01*
X0075730Y0087700D01*
X0075070D01*
X0075070Y0087700D01*
X0074790Y0087980D01*
Y0088360D01*
X0074810D01*
X0074625Y0088545D01*
Y0088555D01*
X0074615D01*
X0074300Y0088870D01*
Y0089170D01*
X0074670D01*
X0075430Y0088410D01*
D02*
G37*
G36*
X0061889Y0090848D02*
X0061890Y0090839D01*
X0061890Y0090839D01*
X0061890D01*
Y0090805D01*
Y0088695D01*
Y0087850D01*
X0060790D01*
Y0090849D01*
X0061880D01*
X0061889Y0090848D01*
D02*
G37*
G36*
X0060590Y0091050D02*
X0056910D01*
Y0092930D01*
X0060590D01*
Y0091050D01*
D02*
G37*
G36*
X0059700Y0095280D02*
X0060589D01*
Y0093130D01*
X0060589Y0093130D01*
X0056910D01*
Y0095680D01*
Y0096450D01*
X0059700D01*
Y0095280D01*
D02*
G37*
G36*
X0061890Y0095299D02*
Y0095089D01*
Y0093131D01*
Y0093130D01*
X0060790D01*
X0060790Y0093130D01*
Y0096180D01*
X0061890D01*
Y0095299D01*
D02*
G37*
G36*
X0067910Y0089754D02*
X0069480D01*
Y0087630D01*
X0070584D01*
Y0087170D01*
X0070587Y0087111D01*
X0070593Y0087079D01*
X0070475Y0086961D01*
X0068775D01*
X0067101Y0088635D01*
Y0089065D01*
X0067119Y0089081D01*
X0067158Y0089125D01*
X0067191Y0089175D01*
X0067217Y0089227D01*
X0067236Y0089283D01*
X0067247Y0089341D01*
X0067251Y0089400D01*
X0067247Y0089459D01*
X0067236Y0089517D01*
X0067217Y0089573D01*
X0067191Y0089625D01*
X0067158Y0089675D01*
X0067119Y0089719D01*
X0067132Y0089755D01*
X0067335D01*
Y0089755D01*
X0067335D01*
X0067335Y0089755D01*
X0067385D01*
Y0089755D01*
X0067895D01*
X0067910Y0089754D01*
D02*
G37*
G36*
X0072470Y0090520D02*
X0071680D01*
X0071610Y0090450D01*
X0071420Y0090260D01*
X0070790D01*
Y0090600D01*
Y0090610D01*
X0070880Y0090700D01*
X0070990Y0090810D01*
X0072470D01*
Y0090520D01*
D02*
G37*
G36*
X0062550Y0093174D02*
X0063070D01*
Y0090806D01*
X0062550D01*
X0062535Y0090805D01*
X0062091D01*
Y0090849D01*
X0062087Y0090888D01*
X0062076Y0090926D01*
X0062057Y0090961D01*
X0062032Y0090991D01*
X0062002Y0091016D01*
X0061967Y0091035D01*
X0061929Y0091046D01*
X0061890Y0091050D01*
X0060790D01*
Y0092929D01*
X0060790Y0092929D01*
X0061890D01*
X0061929Y0092933D01*
X0061967Y0092944D01*
X0062002Y0092963D01*
X0062032Y0092988D01*
X0062057Y0093018D01*
X0062076Y0093053D01*
X0062087Y0093091D01*
X0062091Y0093130D01*
Y0093131D01*
Y0093175D01*
X0062535D01*
X0062550Y0093174D01*
D02*
G37*
G36*
X0075730Y0084760D02*
X0075070D01*
Y0087260D01*
X0075730D01*
Y0084760D01*
D02*
G37*
G36*
X0076879Y0088151D02*
Y0087060D01*
X0076880Y0087048D01*
Y0087010D01*
X0076885Y0087005D01*
X0076885Y0087002D01*
X0076894Y0086967D01*
X0076904Y0086941D01*
X0076912Y0086923D01*
X0076937Y0086883D01*
X0076967Y0086847D01*
X0077340Y0086474D01*
Y0086210D01*
Y0084760D01*
X0076351D01*
Y0087380D01*
X0076350Y0087392D01*
Y0087590D01*
X0075950Y0087990D01*
Y0088350D01*
X0076680D01*
X0076879Y0088151D01*
D02*
G37*
G36*
X0072480Y0085050D02*
X0071680D01*
Y0085410D01*
X0072480D01*
Y0085050D01*
D02*
G37*
G36*
X0081320Y0084750D02*
X0078920D01*
Y0085410D01*
X0081320D01*
Y0084750D01*
D02*
G37*
G36*
X0073380Y0084760D02*
X0072720D01*
Y0087860D01*
X0073380D01*
Y0084760D01*
D02*
G37*
G36*
X0074430D02*
X0073770D01*
Y0087260D01*
X0074430D01*
Y0084760D01*
D02*
G37*
G36*
X0081280Y0087180D02*
Y0087080D01*
X0080670D01*
Y0087750D01*
Y0088280D01*
Y0088390D01*
Y0088500D01*
X0080620Y0088550D01*
Y0089210D01*
X0081280D01*
Y0087180D01*
D02*
G37*
G36*
X0078750Y0087130D02*
X0077550D01*
Y0088869D01*
X0078750D01*
Y0087130D01*
D02*
G37*
G36*
X0060589Y0090849D02*
Y0088700D01*
X0059700D01*
Y0087570D01*
X0056921D01*
X0056910Y0087580D01*
Y0090850D01*
X0060588D01*
X0060589Y0090849D01*
D02*
G37*
G36*
X0072230Y0085420D02*
X0071930D01*
Y0085830D01*
X0072230D01*
Y0085420D01*
D02*
G37*
G36*
X0081280Y0085610D02*
X0080670D01*
X0080450Y0085830D01*
X0079250D01*
Y0086830D01*
X0081280D01*
Y0085610D01*
D02*
G37*
G36*
X0072480Y0085850D02*
X0071680D01*
Y0086210D01*
X0072480D01*
Y0085850D01*
D02*
G37*
G36*
X0065750Y0093174D02*
X0066330D01*
Y0090806D01*
X0065750D01*
X0065735Y0090805D01*
X0065225D01*
X0065225Y0090805D01*
X0065175D01*
Y0090805D01*
X0064665D01*
X0064650Y0090806D01*
X0064130D01*
Y0093174D01*
X0064650D01*
X0064665Y0093175D01*
X0065175D01*
Y0093175D01*
X0065175D01*
X0065175Y0093175D01*
X0065225D01*
Y0093175D01*
X0065735D01*
X0065750Y0093174D01*
D02*
G37*
G36*
X0084990Y0095500D02*
X0084620D01*
Y0096300D01*
X0084990D01*
Y0095500D01*
D02*
G37*
G36*
X0084180D02*
X0083820D01*
Y0096300D01*
X0084180D01*
Y0095500D01*
D02*
G37*
G36*
X0085230Y0107500D02*
X0084200D01*
Y0107500D01*
X0084000Y0107300D01*
Y0106100D01*
X0084200Y0105900D01*
X0085230D01*
Y0105200D01*
X0082860D01*
Y0108200D01*
X0085230D01*
Y0107500D01*
D02*
G37*
G36*
X0084600Y0095750D02*
X0084200D01*
Y0096050D01*
X0084600D01*
Y0095750D01*
D02*
G37*
G36*
X0070800Y0096956D02*
Y0095290D01*
X0069480D01*
Y0094226D01*
X0068960D01*
X0068960Y0094226D01*
X0067910D01*
X0067895Y0094225D01*
X0067385D01*
X0067385Y0094225D01*
X0067335D01*
Y0094225D01*
X0067295D01*
X0067220Y0094275D01*
X0067198Y0094310D01*
X0067217Y0094347D01*
X0067236Y0094403D01*
X0067247Y0094461D01*
X0067251Y0094520D01*
X0067247Y0094579D01*
X0067236Y0094637D01*
X0067217Y0094693D01*
X0067191Y0094745D01*
X0067158Y0094795D01*
X0067119Y0094839D01*
X0067101Y0094855D01*
Y0095285D01*
X0068845Y0097029D01*
X0070799D01*
X0070800Y0096956D01*
D02*
G37*
G36*
X0067910Y0093174D02*
X0068430D01*
Y0090806D01*
X0067910D01*
X0067895Y0090805D01*
X0067385D01*
Y0090805D01*
Y0090805D01*
X0067335D01*
X0067294Y0090846D01*
Y0093175D01*
X0067294Y0093175D01*
X0067385Y0093175D01*
X0067385D01*
Y0093175D01*
X0067895D01*
X0067910Y0093174D01*
D02*
G37*
G36*
X0078860Y0095490D02*
X0076520D01*
Y0096150D01*
X0078200D01*
Y0097060D01*
X0078860D01*
Y0095490D01*
D02*
G37*
G36*
X0065770Y0097418D02*
X0068252D01*
X0068291Y0097326D01*
X0066587Y0095623D01*
X0066557Y0095587D01*
X0066532Y0095547D01*
X0066524Y0095529D01*
X0066514Y0095503D01*
X0066505Y0095468D01*
X0066503Y0095457D01*
X0066499Y0095410D01*
Y0094855D01*
X0066481Y0094839D01*
X0066442Y0094795D01*
X0066409Y0094745D01*
X0066383Y0094693D01*
X0066374Y0094666D01*
X0066276Y0094683D01*
Y0094760D01*
X0066275Y0094775D01*
Y0095285D01*
X0065765D01*
X0065750Y0095286D01*
X0065735Y0095285D01*
X0065225D01*
X0065225Y0095285D01*
X0065175D01*
Y0095285D01*
X0064665D01*
X0064650Y0095286D01*
X0064635Y0095285D01*
X0064125D01*
Y0094775D01*
X0064124Y0094760D01*
Y0094226D01*
X0063076D01*
X0063076Y0094760D01*
X0063075Y0094775D01*
Y0095285D01*
X0062565D01*
X0062550Y0095286D01*
X0062535Y0095285D01*
X0062091D01*
Y0095299D01*
Y0096180D01*
X0062091Y0096181D01*
Y0096650D01*
Y0099840D01*
X0062124Y0099859D01*
X0062209Y0099918D01*
X0062290Y0099983D01*
X0062366Y0100054D01*
X0062437Y0100130D01*
X0062502Y0100211D01*
X0062561Y0100296D01*
X0062613Y0100385D01*
X0062660Y0100477D01*
X0062699Y0100573D01*
X0062732Y0100671D01*
X0062758Y0100772D01*
X0062776Y0100874D01*
X0062787Y0100976D01*
X0062791Y0101080D01*
X0062787Y0101184D01*
X0062776Y0101286D01*
X0062758Y0101388D01*
X0062732Y0101489D01*
X0062699Y0101587D01*
X0062660Y0101683D01*
X0062613Y0101775D01*
X0062561Y0101864D01*
X0062502Y0101950D01*
X0062437Y0102030D01*
X0062366Y0102106D01*
X0062290Y0102177D01*
X0062209Y0102242D01*
X0062124Y0102301D01*
X0062035Y0102353D01*
X0061943Y0102400D01*
X0061847Y0102439D01*
X0061749Y0102472D01*
X0061648Y0102498D01*
X0061546Y0102516D01*
X0061444Y0102527D01*
X0061340Y0102531D01*
X0061236Y0102527D01*
X0061134Y0102516D01*
X0061032Y0102498D01*
X0060931Y0102472D01*
X0060833Y0102439D01*
X0060737Y0102400D01*
X0060645Y0102353D01*
X0060556Y0102301D01*
X0060470Y0102242D01*
X0060390Y0102177D01*
X0060314Y0102106D01*
X0060243Y0102030D01*
X0060178Y0101950D01*
X0060119Y0101864D01*
X0060067Y0101775D01*
X0060020Y0101683D01*
X0059981Y0101587D01*
X0059948Y0101489D01*
X0059922Y0101388D01*
X0059904Y0101286D01*
X0059893Y0101184D01*
X0059889Y0101080D01*
X0059893Y0100976D01*
X0059904Y0100874D01*
X0059922Y0100772D01*
X0059948Y0100671D01*
X0059981Y0100573D01*
X0060020Y0100477D01*
X0060067Y0100385D01*
X0060119Y0100296D01*
X0060178Y0100211D01*
X0060243Y0100130D01*
X0060314Y0100054D01*
X0060390Y0099983D01*
X0060470Y0099918D01*
X0060556Y0099859D01*
X0060589Y0099840D01*
Y0096650D01*
Y0096340D01*
X0059910D01*
Y0096650D01*
X0056910D01*
Y0105510D01*
X0065770D01*
Y0097418D01*
D02*
G37*
%LPC*%
G36*
X0063540Y0085150D02*
X0062421D01*
X0062422Y0085142D01*
X0062448Y0085041D01*
X0062481Y0084943D01*
X0062520Y0084847D01*
X0062567Y0084755D01*
X0062619Y0084666D01*
X0062678Y0084580D01*
X0062743Y0084500D01*
X0062814Y0084424D01*
X0062890Y0084353D01*
X0062970Y0084288D01*
X0063056Y0084229D01*
X0063145Y0084177D01*
X0063237Y0084130D01*
X0063333Y0084091D01*
X0063431Y0084058D01*
X0063532Y0084032D01*
X0063540Y0084031D01*
Y0085150D01*
D02*
G37*
G36*
X0058540D02*
X0057421D01*
X0057422Y0085142D01*
X0057448Y0085041D01*
X0057481Y0084943D01*
X0057520Y0084847D01*
X0057567Y0084755D01*
X0057619Y0084666D01*
X0057678Y0084580D01*
X0057743Y0084500D01*
X0057814Y0084424D01*
X0057890Y0084353D01*
X0057970Y0084288D01*
X0058056Y0084229D01*
X0058145Y0084177D01*
X0058237Y0084130D01*
X0058333Y0084091D01*
X0058431Y0084058D01*
X0058532Y0084032D01*
X0058540Y0084031D01*
Y0085150D01*
D02*
G37*
G36*
X0060259D02*
X0059140D01*
Y0084031D01*
X0059148Y0084032D01*
X0059249Y0084058D01*
X0059347Y0084091D01*
X0059443Y0084130D01*
X0059535Y0084177D01*
X0059624Y0084229D01*
X0059709Y0084288D01*
X0059790Y0084353D01*
X0059866Y0084424D01*
X0059937Y0084500D01*
X0060002Y0084580D01*
X0060061Y0084666D01*
X0060113Y0084755D01*
X0060160Y0084847D01*
X0060199Y0084943D01*
X0060232Y0085041D01*
X0060258Y0085142D01*
X0060259Y0085150D01*
D02*
G37*
G36*
X0065259D02*
X0064140D01*
Y0084031D01*
X0064148Y0084032D01*
X0064249Y0084058D01*
X0064347Y0084091D01*
X0064443Y0084130D01*
X0064535Y0084177D01*
X0064624Y0084229D01*
X0064710Y0084288D01*
X0064790Y0084353D01*
X0064866Y0084424D01*
X0064937Y0084500D01*
X0065002Y0084580D01*
X0065061Y0084666D01*
X0065113Y0084755D01*
X0065160Y0084847D01*
X0065199Y0084943D01*
X0065232Y0085041D01*
X0065258Y0085142D01*
X0065259Y0085150D01*
D02*
G37*
G36*
X0059140Y0104999D02*
Y0103880D01*
X0060259D01*
X0060258Y0103888D01*
X0060232Y0103989D01*
X0060199Y0104087D01*
X0060160Y0104183D01*
X0060113Y0104275D01*
X0060061Y0104364D01*
X0060002Y0104450D01*
X0059937Y0104530D01*
X0059866Y0104606D01*
X0059790Y0104677D01*
X0059709Y0104742D01*
X0059624Y0104801D01*
X0059535Y0104853D01*
X0059443Y0104900D01*
X0059347Y0104939D01*
X0059249Y0104972D01*
X0059148Y0104998D01*
X0059140Y0104999D01*
D02*
G37*
G36*
X0063540D02*
X0063532Y0104998D01*
X0063431Y0104972D01*
X0063333Y0104939D01*
X0063237Y0104900D01*
X0063145Y0104853D01*
X0063056Y0104801D01*
X0062970Y0104742D01*
X0062890Y0104677D01*
X0062814Y0104606D01*
X0062743Y0104530D01*
X0062678Y0104450D01*
X0062619Y0104364D01*
X0062567Y0104275D01*
X0062520Y0104183D01*
X0062481Y0104087D01*
X0062448Y0103989D01*
X0062422Y0103888D01*
X0062421Y0103880D01*
X0063540D01*
Y0104999D01*
D02*
G37*
G36*
X0064140D02*
Y0103880D01*
X0065259D01*
X0065258Y0103888D01*
X0065232Y0103989D01*
X0065199Y0104087D01*
X0065160Y0104183D01*
X0065113Y0104275D01*
X0065061Y0104364D01*
X0065002Y0104450D01*
X0064937Y0104530D01*
X0064866Y0104606D01*
X0064790Y0104677D01*
X0064710Y0104742D01*
X0064624Y0104801D01*
X0064535Y0104853D01*
X0064443Y0104900D01*
X0064347Y0104939D01*
X0064249Y0104972D01*
X0064148Y0104998D01*
X0064140Y0104999D01*
D02*
G37*
G36*
X0063540Y0080150D02*
X0062421D01*
X0062422Y0080142D01*
X0062448Y0080041D01*
X0062481Y0079943D01*
X0062520Y0079847D01*
X0062567Y0079755D01*
X0062619Y0079666D01*
X0062678Y0079580D01*
X0062743Y0079500D01*
X0062814Y0079424D01*
X0062890Y0079353D01*
X0062970Y0079288D01*
X0063056Y0079229D01*
X0063145Y0079177D01*
X0063237Y0079130D01*
X0063333Y0079091D01*
X0063431Y0079058D01*
X0063532Y0079032D01*
X0063540Y0079031D01*
Y0080150D01*
D02*
G37*
G36*
X0065259D02*
X0064140D01*
Y0079031D01*
X0064148Y0079032D01*
X0064249Y0079058D01*
X0064347Y0079091D01*
X0064443Y0079130D01*
X0064535Y0079177D01*
X0064624Y0079229D01*
X0064710Y0079288D01*
X0064790Y0079353D01*
X0064866Y0079424D01*
X0064937Y0079500D01*
X0065002Y0079580D01*
X0065061Y0079666D01*
X0065113Y0079755D01*
X0065160Y0079847D01*
X0065199Y0079943D01*
X0065232Y0080041D01*
X0065258Y0080142D01*
X0065259Y0080150D01*
D02*
G37*
G36*
X0058540D02*
X0057421D01*
X0057422Y0080142D01*
X0057448Y0080041D01*
X0057481Y0079943D01*
X0057520Y0079847D01*
X0057567Y0079755D01*
X0057619Y0079666D01*
X0057678Y0079580D01*
X0057743Y0079500D01*
X0057814Y0079424D01*
X0057890Y0079353D01*
X0057970Y0079288D01*
X0058056Y0079229D01*
X0058145Y0079177D01*
X0058237Y0079130D01*
X0058333Y0079091D01*
X0058431Y0079058D01*
X0058532Y0079032D01*
X0058540Y0079031D01*
Y0080150D01*
D02*
G37*
G36*
X0060259D02*
X0059140D01*
Y0079031D01*
X0059148Y0079032D01*
X0059249Y0079058D01*
X0059347Y0079091D01*
X0059443Y0079130D01*
X0059535Y0079177D01*
X0059624Y0079229D01*
X0059709Y0079288D01*
X0059790Y0079353D01*
X0059866Y0079424D01*
X0059937Y0079500D01*
X0060002Y0079580D01*
X0060061Y0079666D01*
X0060113Y0079755D01*
X0060160Y0079847D01*
X0060199Y0079943D01*
X0060232Y0080041D01*
X0060258Y0080142D01*
X0060259Y0080150D01*
D02*
G37*
G36*
X0063540Y0081869D02*
X0063532Y0081868D01*
X0063431Y0081842D01*
X0063333Y0081809D01*
X0063237Y0081770D01*
X0063145Y0081723D01*
X0063056Y0081671D01*
X0062970Y0081612D01*
X0062890Y0081547D01*
X0062814Y0081476D01*
X0062743Y0081400D01*
X0062678Y0081320D01*
X0062619Y0081234D01*
X0062567Y0081145D01*
X0062520Y0081053D01*
X0062481Y0080957D01*
X0062448Y0080859D01*
X0062422Y0080758D01*
X0062421Y0080750D01*
X0063540D01*
Y0081869D01*
D02*
G37*
G36*
X0064140D02*
Y0080750D01*
X0065259D01*
X0065258Y0080758D01*
X0065232Y0080859D01*
X0065199Y0080957D01*
X0065160Y0081053D01*
X0065113Y0081145D01*
X0065061Y0081234D01*
X0065002Y0081320D01*
X0064937Y0081400D01*
X0064866Y0081476D01*
X0064790Y0081547D01*
X0064710Y0081612D01*
X0064624Y0081671D01*
X0064535Y0081723D01*
X0064443Y0081770D01*
X0064347Y0081809D01*
X0064249Y0081842D01*
X0064148Y0081868D01*
X0064140Y0081869D01*
D02*
G37*
G36*
X0058540D02*
X0058532Y0081868D01*
X0058431Y0081842D01*
X0058333Y0081809D01*
X0058237Y0081770D01*
X0058145Y0081723D01*
X0058056Y0081671D01*
X0057970Y0081612D01*
X0057890Y0081547D01*
X0057814Y0081476D01*
X0057743Y0081400D01*
X0057678Y0081320D01*
X0057619Y0081234D01*
X0057567Y0081145D01*
X0057520Y0081053D01*
X0057481Y0080957D01*
X0057448Y0080859D01*
X0057422Y0080758D01*
X0057421Y0080750D01*
X0058540D01*
Y0081869D01*
D02*
G37*
G36*
X0059140D02*
Y0080750D01*
X0060259D01*
X0060258Y0080758D01*
X0060232Y0080859D01*
X0060199Y0080957D01*
X0060160Y0081053D01*
X0060113Y0081145D01*
X0060061Y0081234D01*
X0060002Y0081320D01*
X0059937Y0081400D01*
X0059866Y0081476D01*
X0059790Y0081547D01*
X0059709Y0081612D01*
X0059624Y0081671D01*
X0059535Y0081723D01*
X0059443Y0081770D01*
X0059347Y0081809D01*
X0059249Y0081842D01*
X0059148Y0081868D01*
X0059140Y0081869D01*
D02*
G37*
G36*
X0058540Y0104999D02*
X0058532Y0104998D01*
X0058431Y0104972D01*
X0058333Y0104939D01*
X0058237Y0104900D01*
X0058145Y0104853D01*
X0058056Y0104801D01*
X0057970Y0104742D01*
X0057890Y0104677D01*
X0057814Y0104606D01*
X0057743Y0104530D01*
X0057678Y0104450D01*
X0057619Y0104364D01*
X0057567Y0104275D01*
X0057520Y0104183D01*
X0057481Y0104087D01*
X0057448Y0103989D01*
X0057422Y0103888D01*
X0057421Y0103880D01*
X0058540D01*
Y0104999D01*
D02*
G37*
G36*
X0059140Y0099999D02*
Y0098880D01*
X0060259D01*
X0060258Y0098888D01*
X0060232Y0098989D01*
X0060199Y0099087D01*
X0060160Y0099183D01*
X0060113Y0099275D01*
X0060061Y0099364D01*
X0060002Y0099450D01*
X0059937Y0099530D01*
X0059866Y0099606D01*
X0059790Y0099677D01*
X0059709Y0099742D01*
X0059624Y0099801D01*
X0059535Y0099853D01*
X0059443Y0099900D01*
X0059347Y0099939D01*
X0059249Y0099972D01*
X0059148Y0099998D01*
X0059140Y0099999D01*
D02*
G37*
G36*
X0058540D02*
X0058532Y0099998D01*
X0058431Y0099972D01*
X0058333Y0099939D01*
X0058237Y0099900D01*
X0058145Y0099853D01*
X0058056Y0099801D01*
X0057970Y0099742D01*
X0057890Y0099677D01*
X0057814Y0099606D01*
X0057743Y0099530D01*
X0057678Y0099450D01*
X0057619Y0099364D01*
X0057567Y0099275D01*
X0057520Y0099183D01*
X0057481Y0099087D01*
X0057448Y0098989D01*
X0057422Y0098888D01*
X0057421Y0098880D01*
X0058540D01*
Y0099999D01*
D02*
G37*
G36*
X0064140D02*
Y0098880D01*
X0065259D01*
X0065258Y0098888D01*
X0065232Y0098989D01*
X0065199Y0099087D01*
X0065160Y0099183D01*
X0065113Y0099275D01*
X0065061Y0099364D01*
X0065002Y0099450D01*
X0064937Y0099530D01*
X0064866Y0099606D01*
X0064790Y0099677D01*
X0064710Y0099742D01*
X0064624Y0099801D01*
X0064535Y0099853D01*
X0064443Y0099900D01*
X0064347Y0099939D01*
X0064249Y0099972D01*
X0064148Y0099998D01*
X0064140Y0099999D01*
D02*
G37*
G36*
X0063540D02*
X0063532Y0099998D01*
X0063431Y0099972D01*
X0063333Y0099939D01*
X0063237Y0099900D01*
X0063145Y0099853D01*
X0063056Y0099801D01*
X0062970Y0099742D01*
X0062890Y0099677D01*
X0062814Y0099606D01*
X0062743Y0099530D01*
X0062678Y0099450D01*
X0062619Y0099364D01*
X0062567Y0099275D01*
X0062520Y0099183D01*
X0062481Y0099087D01*
X0062448Y0098989D01*
X0062422Y0098888D01*
X0062421Y0098880D01*
X0063540D01*
Y0099999D01*
D02*
G37*
G36*
X0060259Y0098280D02*
X0059140D01*
Y0097161D01*
X0059148Y0097162D01*
X0059249Y0097188D01*
X0059347Y0097221D01*
X0059443Y0097260D01*
X0059535Y0097307D01*
X0059624Y0097359D01*
X0059709Y0097418D01*
X0059790Y0097483D01*
X0059866Y0097554D01*
X0059937Y0097630D01*
X0060002Y0097711D01*
X0060061Y0097796D01*
X0060113Y0097885D01*
X0060160Y0097977D01*
X0060199Y0098073D01*
X0060232Y0098171D01*
X0060258Y0098272D01*
X0060259Y0098280D01*
D02*
G37*
G36*
X0058540D02*
X0057421D01*
X0057422Y0098272D01*
X0057448Y0098171D01*
X0057481Y0098073D01*
X0057520Y0097977D01*
X0057567Y0097885D01*
X0057619Y0097796D01*
X0057678Y0097711D01*
X0057743Y0097630D01*
X0057814Y0097554D01*
X0057890Y0097483D01*
X0057970Y0097418D01*
X0058056Y0097359D01*
X0058145Y0097307D01*
X0058237Y0097260D01*
X0058333Y0097221D01*
X0058431Y0097188D01*
X0058532Y0097162D01*
X0058540Y0097161D01*
Y0098280D01*
D02*
G37*
G36*
X0065259D02*
X0064140D01*
Y0097161D01*
X0064148Y0097162D01*
X0064249Y0097188D01*
X0064347Y0097221D01*
X0064443Y0097260D01*
X0064535Y0097307D01*
X0064624Y0097359D01*
X0064710Y0097418D01*
X0064790Y0097483D01*
X0064866Y0097554D01*
X0064937Y0097630D01*
X0065002Y0097711D01*
X0065061Y0097796D01*
X0065113Y0097885D01*
X0065160Y0097977D01*
X0065199Y0098073D01*
X0065232Y0098171D01*
X0065258Y0098272D01*
X0065259Y0098280D01*
D02*
G37*
G36*
X0063540D02*
X0062421D01*
X0062422Y0098272D01*
X0062448Y0098171D01*
X0062481Y0098073D01*
X0062520Y0097977D01*
X0062567Y0097885D01*
X0062619Y0097796D01*
X0062678Y0097711D01*
X0062743Y0097630D01*
X0062814Y0097554D01*
X0062890Y0097483D01*
X0062970Y0097418D01*
X0063056Y0097359D01*
X0063145Y0097307D01*
X0063237Y0097260D01*
X0063333Y0097221D01*
X0063431Y0097188D01*
X0063532Y0097162D01*
X0063540Y0097161D01*
Y0098280D01*
D02*
G37*
G36*
X0060259Y0103280D02*
X0059140D01*
Y0102161D01*
X0059148Y0102162D01*
X0059249Y0102188D01*
X0059347Y0102221D01*
X0059443Y0102260D01*
X0059535Y0102307D01*
X0059624Y0102359D01*
X0059709Y0102418D01*
X0059790Y0102483D01*
X0059866Y0102554D01*
X0059937Y0102630D01*
X0060002Y0102711D01*
X0060061Y0102796D01*
X0060113Y0102885D01*
X0060160Y0102977D01*
X0060199Y0103073D01*
X0060232Y0103171D01*
X0060258Y0103272D01*
X0060259Y0103280D01*
D02*
G37*
G36*
X0058540Y0086869D02*
X0058532Y0086868D01*
X0058431Y0086842D01*
X0058333Y0086809D01*
X0058237Y0086770D01*
X0058145Y0086723D01*
X0058056Y0086671D01*
X0057970Y0086612D01*
X0057890Y0086547D01*
X0057814Y0086476D01*
X0057743Y0086400D01*
X0057678Y0086320D01*
X0057619Y0086234D01*
X0057567Y0086145D01*
X0057520Y0086053D01*
X0057481Y0085957D01*
X0057448Y0085859D01*
X0057422Y0085758D01*
X0057421Y0085750D01*
X0058540D01*
Y0086869D01*
D02*
G37*
G36*
X0065259Y0103280D02*
X0064140D01*
Y0102161D01*
X0064148Y0102162D01*
X0064249Y0102188D01*
X0064347Y0102221D01*
X0064443Y0102260D01*
X0064535Y0102307D01*
X0064624Y0102359D01*
X0064710Y0102418D01*
X0064790Y0102483D01*
X0064866Y0102554D01*
X0064937Y0102630D01*
X0065002Y0102711D01*
X0065061Y0102796D01*
X0065113Y0102885D01*
X0065160Y0102977D01*
X0065199Y0103073D01*
X0065232Y0103171D01*
X0065258Y0103272D01*
X0065259Y0103280D01*
D02*
G37*
G36*
X0063540D02*
X0062421D01*
X0062422Y0103272D01*
X0062448Y0103171D01*
X0062481Y0103073D01*
X0062520Y0102977D01*
X0062567Y0102885D01*
X0062619Y0102796D01*
X0062678Y0102711D01*
X0062743Y0102630D01*
X0062814Y0102554D01*
X0062890Y0102483D01*
X0062970Y0102418D01*
X0063056Y0102359D01*
X0063145Y0102307D01*
X0063237Y0102260D01*
X0063333Y0102221D01*
X0063431Y0102188D01*
X0063532Y0102162D01*
X0063540Y0102161D01*
Y0103280D01*
D02*
G37*
G36*
X0064140Y0086869D02*
Y0085750D01*
X0065259D01*
X0065258Y0085758D01*
X0065232Y0085859D01*
X0065199Y0085957D01*
X0065160Y0086053D01*
X0065113Y0086145D01*
X0065061Y0086234D01*
X0065002Y0086320D01*
X0064937Y0086400D01*
X0064866Y0086476D01*
X0064790Y0086547D01*
X0064710Y0086612D01*
X0064624Y0086671D01*
X0064535Y0086723D01*
X0064443Y0086770D01*
X0064347Y0086809D01*
X0064249Y0086842D01*
X0064148Y0086868D01*
X0064140Y0086869D01*
D02*
G37*
G36*
X0058540Y0103280D02*
X0057421D01*
X0057422Y0103272D01*
X0057448Y0103171D01*
X0057481Y0103073D01*
X0057520Y0102977D01*
X0057567Y0102885D01*
X0057619Y0102796D01*
X0057678Y0102711D01*
X0057743Y0102630D01*
X0057814Y0102554D01*
X0057890Y0102483D01*
X0057970Y0102418D01*
X0058056Y0102359D01*
X0058145Y0102307D01*
X0058237Y0102260D01*
X0058333Y0102221D01*
X0058431Y0102188D01*
X0058532Y0102162D01*
X0058540Y0102161D01*
Y0103280D01*
D02*
G37*
G36*
X0059140Y0086869D02*
Y0085750D01*
X0060259D01*
X0060258Y0085758D01*
X0060232Y0085859D01*
X0060199Y0085957D01*
X0060160Y0086053D01*
X0060113Y0086145D01*
X0060061Y0086234D01*
X0060002Y0086320D01*
X0059937Y0086400D01*
X0059866Y0086476D01*
X0059790Y0086547D01*
X0059709Y0086612D01*
X0059624Y0086671D01*
X0059535Y0086723D01*
X0059443Y0086770D01*
X0059347Y0086809D01*
X0059249Y0086842D01*
X0059148Y0086868D01*
X0059140Y0086869D01*
D02*
G37*
G36*
X0063540D02*
X0063532Y0086868D01*
X0063431Y0086842D01*
X0063333Y0086809D01*
X0063237Y0086770D01*
X0063145Y0086723D01*
X0063056Y0086671D01*
X0062970Y0086612D01*
X0062890Y0086547D01*
X0062814Y0086476D01*
X0062743Y0086400D01*
X0062678Y0086320D01*
X0062619Y0086234D01*
X0062567Y0086145D01*
X0062520Y0086053D01*
X0062481Y0085957D01*
X0062448Y0085859D01*
X0062422Y0085758D01*
X0062421Y0085750D01*
X0063540D01*
Y0086869D01*
D02*
G37*
%LPD*%
D10*
X0072080Y0086180D02*
D03*
Y0085080D02*
D03*
X0073050Y0088630D02*
D03*
Y0087530D02*
D03*
X0052820Y0082290D02*
D03*
Y0083390D02*
D03*
X0054840Y0089420D02*
D03*
Y0090520D02*
D03*
X0063600Y0093700D02*
D03*
Y0092600D02*
D03*
X0068960Y0090280D02*
D03*
Y0091380D02*
D03*
X0063600Y0090280D02*
D03*
Y0091380D02*
D03*
X0078530Y0095820D02*
D03*
Y0094720D02*
D03*
X0068960Y0093700D02*
D03*
Y0092600D02*
D03*
X0074100Y0086930D02*
D03*
Y0088030D02*
D03*
X0075400D02*
D03*
Y0086930D02*
D03*
X0052840Y0090520D02*
D03*
Y0089420D02*
D03*
X0054840Y0082290D02*
D03*
Y0083390D02*
D03*
D11*
X0083900Y0086220D02*
D03*
X0098700Y0078700D02*
D03*
X0053860Y0093450D02*
D03*
D12*
X0079850Y0088880D02*
D03*
X0080950D02*
D03*
X0071110Y0088160D02*
D03*
X0070010D02*
D03*
X0096200Y0078700D02*
D03*
X0095100D02*
D03*
Y0099160D02*
D03*
X0096200D02*
D03*
X0070010Y0094760D02*
D03*
X0071110D02*
D03*
X0061450Y0090280D02*
D03*
X0062550D02*
D03*
X0061450Y0089220D02*
D03*
X0062550D02*
D03*
X0095100Y0097910D02*
D03*
X0096200D02*
D03*
X0095100Y0085100D02*
D03*
Y0088300D02*
D03*
Y0091500D02*
D03*
Y0094700D02*
D03*
X0096200Y0100410D02*
D03*
X0071110Y0091340D02*
D03*
X0070010D02*
D03*
X0071110Y0092640D02*
D03*
X0070010D02*
D03*
Y0089220D02*
D03*
X0071110D02*
D03*
Y0093700D02*
D03*
X0070010D02*
D03*
X0071110Y0090280D02*
D03*
X0070010D02*
D03*
X0064650Y0089220D02*
D03*
X0065750D02*
D03*
X0064650Y0090280D02*
D03*
X0065750D02*
D03*
Y0093700D02*
D03*
X0064650D02*
D03*
X0066810Y0090280D02*
D03*
X0067910D02*
D03*
X0062550Y0093700D02*
D03*
X0061450D02*
D03*
X0095100Y0100410D02*
D03*
X0096200Y0094700D02*
D03*
Y0091500D02*
D03*
Y0088300D02*
D03*
Y0085100D02*
D03*
X0095100Y0102910D02*
D03*
X0096200D02*
D03*
X0095100Y0104160D02*
D03*
X0096200D02*
D03*
X0064650Y0094760D02*
D03*
X0065750D02*
D03*
X0067910Y0093700D02*
D03*
X0066810D02*
D03*
X0083090Y0089920D02*
D03*
X0081990D02*
D03*
X0079250Y0085080D02*
D03*
X0078150D02*
D03*
X0060240Y0095810D02*
D03*
X0061340D02*
D03*
Y0088170D02*
D03*
X0060240D02*
D03*
X0084950Y0095900D02*
D03*
X0083850D02*
D03*
X0061450Y0094760D02*
D03*
X0062550D02*
D03*
X0095100Y0101660D02*
D03*
X0096200D02*
D03*
X0095100Y0081900D02*
D03*
X0096200D02*
D03*
D13*
X0086280Y0106700D02*
D03*
X0084780D02*
D03*
D14*
X0079850Y0086330D02*
D03*
Y0087630D02*
D03*
X0078150Y0086330D02*
D03*
Y0087630D02*
D03*
D15*
X0074800Y0092320D02*
D03*
D16*
X0072400Y0090695D02*
D03*
Y0091345D02*
D03*
Y0091995D02*
D03*
Y0092645D02*
D03*
Y0093295D02*
D03*
Y0093945D02*
D03*
X0077200D02*
D03*
Y0093295D02*
D03*
Y0092645D02*
D03*
Y0091995D02*
D03*
Y0091345D02*
D03*
Y0090695D02*
D03*
D17*
X0073175Y0094720D02*
D03*
X0073825D02*
D03*
X0074475D02*
D03*
X0075125D02*
D03*
X0075775D02*
D03*
X0076425D02*
D03*
Y0089920D02*
D03*
X0075775D02*
D03*
X0075125D02*
D03*
X0074475D02*
D03*
X0073825D02*
D03*
X0073175D02*
D03*
D18*
X0084770Y0106710D02*
X0084780D01*
X0072080Y0085080D02*
Y0086170D01*
X0075150Y0088030D02*
X0075160Y0088020D01*
X0075125Y0089355D02*
X0075730Y0088750D01*
X0075125Y0089355D02*
Y0089920D01*
X0075960Y0089170D02*
X0079560D01*
X0075775Y0089355D02*
X0075960Y0089170D01*
X0075775Y0089355D02*
Y0089920D01*
X0076425D02*
X0081990D01*
X0077200Y0090695D02*
X0084100D01*
X0089500Y0085500D02*
Y0090720D01*
X0077200Y0091345D02*
X0085000D01*
X0088500Y0092000D02*
X0089630D01*
X0077200Y0091995D02*
X0084100D01*
X0091500Y0089900D02*
X0093100Y0088300D01*
X0091500Y0089900D02*
Y0091640D01*
X0090490Y0092650D02*
X0091500Y0091640D01*
X0087600Y0092650D02*
X0090490D01*
X0077200Y0092645D02*
X0085000D01*
X0091300Y0093300D02*
X0093100Y0091500D01*
X0088500Y0093300D02*
X0091300D01*
X0077200Y0093295D02*
X0084100Y0093300D01*
X0088350Y0094700D02*
X0095100D01*
X0084295Y0093945D02*
X0085000Y0093940D01*
X0077200Y0093945D02*
X0084295D01*
X0088500Y0083300D02*
X0093100Y0078700D01*
X0089500Y0085500D02*
X0093100Y0081900D01*
X0090500Y0087700D02*
X0093100Y0085100D01*
X0090500Y0087700D02*
Y0091130D01*
X0093100Y0091500D02*
X0093100Y0091500D01*
X0092500D02*
X0095100D01*
X0092500Y0088300D02*
X0095100D01*
X0093100Y0085100D02*
X0093100Y0085100D01*
X0092500D02*
X0095100D01*
X0092500Y0081900D02*
X0095100D01*
X0092500Y0078700D02*
X0095100D01*
X0104640Y0100660D02*
Y0100660D01*
X0087590Y0101660D02*
X0095110D01*
X0073825Y0099375D02*
X0076110Y0101660D01*
X0085000D01*
X0087600Y0097910D02*
X0095100D01*
X0075775Y0096295D02*
X0077390Y0097910D01*
X0085000D01*
X0072400Y0101380D02*
X0075180Y0104160D01*
X0087600D02*
X0095100D01*
X0087600Y0102920D02*
X0095100Y0102910D01*
X0087600Y0099160D02*
X0095110D01*
X0075125Y0097275D02*
X0077010Y0099160D01*
X0085000D01*
X0074470Y0098310D02*
X0076570Y0100410D01*
X0074470Y0094600D02*
Y0098310D01*
X0076570Y0100410D02*
X0085000D01*
X0087600D02*
X0095100D01*
X0096200Y0085100D02*
X0097740D01*
X0096200Y0081900D02*
X0099200D01*
X0096200Y0099160D02*
X0099200D01*
Y0085420D02*
X0102100D01*
X0096200Y0078700D02*
X0096200D01*
X0100200Y0091770D02*
X0103370D01*
X0096200Y0091500D02*
X0098240D01*
X0099240Y0090500D01*
X0102100D01*
X0097200Y0087960D02*
X0102100D01*
X0099200Y0103200D02*
X0102100D01*
X0095110Y0078700D02*
X0096200D01*
X0097250Y0096850D02*
X0103370D01*
X0096200Y0088300D02*
X0096200D01*
X0098200Y0095580D02*
X0102100D01*
X0099960Y0082880D02*
X0102100D01*
X0097740Y0085100D02*
X0099960Y0082880D01*
X0099730Y0093040D02*
X0102100D01*
X0098070Y0094700D02*
X0099730Y0093040D01*
X0098200Y0089230D02*
X0103370D01*
X0104640Y0090500D01*
X0103370Y0091770D02*
X0104640Y0093040D01*
X0100200Y0094310D02*
X0103370D01*
X0104640Y0095580D01*
X0103370Y0096850D02*
X0104640Y0098120D01*
X0099200D02*
X0102100D01*
X0101100Y0101660D02*
X0102100Y0100660D01*
X0096200Y0101660D02*
X0101100D01*
X0096200Y0104160D02*
X0097200D01*
X0073175Y0100425D02*
X0075660Y0102910D01*
X0085000D01*
X0072400Y0093945D02*
Y0101380D01*
X0075775Y0094720D02*
Y0096295D01*
X0075125Y0094720D02*
Y0097275D01*
X0073825Y0094720D02*
Y0099375D01*
X0073175Y0094720D02*
Y0100425D01*
X0095110Y0099160D02*
X0096200D01*
X0095110Y0100410D02*
X0096200D01*
X0095110Y0091500D02*
X0096200D01*
X0095110Y0085100D02*
X0096200D01*
X0095110Y0088300D02*
X0096200D01*
X0095110Y0094700D02*
X0096200D01*
X0071525Y0090695D02*
X0072400D01*
X0095110Y0102910D02*
X0096200D01*
X0095110Y0104160D02*
X0096200D01*
X0071110Y0092640D02*
X0071115Y0092645D01*
X0062450Y0093730D02*
X0062480Y0093700D01*
X0071110Y0091340D02*
X0071115Y0091345D01*
X0071150Y0090350D02*
X0071180D01*
X0071110Y0090280D02*
X0071525Y0090695D01*
X0067910Y0090280D02*
X0067910Y0090280D01*
X0068960Y0093700D02*
X0068960Y0093700D01*
X0067910D02*
X0067910Y0093700D01*
X0064650D02*
X0064650Y0093700D01*
X0062550D02*
X0062550Y0093700D01*
X0067910Y0090280D02*
X0067910Y0090280D01*
X0063600D02*
X0063600Y0090280D01*
X0062550Y0090280D02*
X0062550Y0090280D01*
X0088500Y0083300D02*
Y0090700D01*
X0088870Y0091350D02*
X0089500Y0090720D01*
X0087600Y0091350D02*
X0088870D01*
X0089630Y0092000D02*
X0090500Y0091130D01*
X0074100Y0088030D02*
X0074750Y0087380D01*
Y0079760D02*
Y0087380D01*
X0076050Y0080040D02*
Y0087380D01*
Y0080040D02*
X0077690Y0078400D01*
X0073390D02*
X0074750Y0079760D01*
X0075730Y0088750D02*
X0076740D01*
X0083090Y0089920D02*
X0085000D01*
X0093080D02*
X0100200D01*
X0081990Y0078400D02*
Y0089920D01*
X0078150Y0085080D02*
Y0086330D01*
X0078150Y0086330D02*
X0078150Y0086330D01*
X0077910Y0086330D02*
X0078150D01*
X0077180Y0087060D02*
X0077910Y0086330D01*
X0077910Y0086330D02*
X0078150D01*
X0078050Y0087630D02*
X0078220D01*
X0077180Y0087060D02*
Y0088310D01*
X0076740Y0088750D02*
X0077180Y0088310D01*
X0077590Y0104160D02*
Y0106700D01*
X0075180Y0104160D02*
X0085000D01*
X0071110Y0104520D02*
X0073290Y0106700D01*
X0079850Y0087630D02*
Y0088880D01*
X0079560Y0089170D02*
X0079850Y0088880D01*
X0096200Y0102910D02*
X0098200D01*
X0096200Y0100410D02*
X0100200D01*
X0099200Y0081900D02*
Y0081900D01*
X0096200Y0078700D02*
X0098200Y0080700D01*
X0070600Y0086660D02*
X0071110Y0087170D01*
X0068650Y0086660D02*
X0070600D01*
X0075405Y0088025D02*
X0076050Y0087380D01*
X0061450Y0093700D02*
Y0095850D01*
X0066800Y0088510D02*
X0068650Y0086660D01*
X0096200Y0094700D02*
X0098070D01*
X0096200Y0095800D02*
X0097250Y0096850D01*
X0096200Y0088300D02*
Y0089260D01*
X0083860Y0095900D02*
X0084950D01*
X0087600Y0093950D02*
X0088350Y0094700D01*
X0095110Y0101660D02*
X0096200D01*
X0095110Y0081900D02*
X0096200D01*
X0071110Y0087170D02*
Y0088160D01*
X0071110Y0097330D02*
Y0104520D01*
Y0094760D02*
Y0097330D01*
X0068720D02*
X0071110D01*
X0066800Y0088510D02*
Y0089400D01*
Y0091100D02*
Y0092880D01*
Y0094520D02*
Y0095410D01*
X0068720Y0097330D01*
X0086260Y0095300D02*
X0086290Y0095330D01*
X0086070Y0095900D02*
X0086290Y0096120D01*
D19*
X0083700Y0106700D02*
X0084780D01*
X0084780Y0106700D02*
Y0107800D01*
Y0105600D02*
Y0106700D01*
X0073175Y0088765D02*
Y0090120D01*
X0073826Y0088304D02*
X0074100Y0088030D01*
X0073825Y0090120D02*
X0073826Y0089920D01*
Y0088304D02*
Y0089920D01*
X0074100Y0088030D02*
X0074100D01*
X0074475Y0088955D02*
Y0090120D01*
X0073050Y0088640D02*
X0073175Y0088765D01*
X0078530Y0095820D02*
X0078530Y0095820D01*
X0069060Y0088160D02*
X0070010D01*
X0074475Y0088955D02*
X0075400Y0088030D01*
X0077810Y0087970D02*
X0078150Y0087630D01*
X0078220D02*
X0078490Y0087900D01*
X0069100Y0094760D02*
X0070010D01*
Y0095590D01*
X0060240Y0094750D02*
Y0095810D01*
X0059360D02*
X0060240D01*
X0070010Y0087290D02*
Y0088160D01*
X0059360Y0088170D02*
X0060240D01*
Y0089230D01*
X0080980Y0088050D02*
Y0088850D01*
X0080950Y0088880D02*
X0080980Y0088850D01*
X0096200Y0096950D02*
Y0097910D01*
Y0096950D02*
X0096200Y0096950D01*
X0078530Y0096730D02*
X0078530Y0096730D01*
X0063570Y0091380D02*
X0063610Y0091420D01*
X0062700Y0091380D02*
X0064480D01*
X0062700Y0092600D02*
X0064480D01*
X0068140D02*
X0068960D01*
X0068120Y0092580D02*
X0068140Y0092600D01*
X0068120Y0091380D02*
X0068960D01*
X0069040Y0089220D02*
X0070010D01*
X0069040Y0089220D02*
X0069040Y0089220D01*
D20*
X0072080Y0086170D02*
Y0086180D01*
X0095100Y0078700D02*
X0095110D01*
X0095100Y0099160D02*
X0095110D01*
X0095100Y0100410D02*
X0095110D01*
X0095100Y0091500D02*
X0095110D01*
X0095100Y0085100D02*
X0095110D01*
X0095100Y0088300D02*
X0095110D01*
X0095100Y0094700D02*
X0095110D01*
X0095100Y0102910D02*
X0095110D01*
X0095100Y0104160D02*
X0095110D01*
X0083850Y0095900D02*
X0083860D01*
X0095100Y0101660D02*
X0095110D01*
X0095100Y0081900D02*
X0095110D01*
D21*
X0072080Y0086180D02*
Y0088230D01*
X0079350Y0094720D02*
X0080530Y0095900D01*
X0072080Y0088230D02*
X0072480Y0088630D01*
X0072970D01*
X0080530Y0095900D02*
X0083850D01*
X0076650Y0094720D02*
X0079350D01*
X0084950Y0095900D02*
X0086070D01*
X0072080Y0080900D02*
Y0085080D01*
D22*
X0104640Y0103200D02*
Y0105200D01*
X0086290Y0106700D02*
X0094410D01*
X0103140D02*
X0104640Y0105200D01*
X0096950Y0106700D02*
X0103140D01*
X0069090Y0078700D02*
Y0080900D01*
X0086290D02*
Y0106700D01*
X0083390Y0080900D02*
X0086290D01*
X0069090D02*
X0072080D01*
D23*
X0071115Y0092645D02*
X0072400D01*
X0071115Y0091345D02*
X0072400D01*
Y0091995D02*
X0073175D01*
X0072400Y0093295D02*
X0073175D01*
Y0091995D02*
X0073500Y0092320D01*
X0073175Y0093295D02*
X0073500Y0093620D01*
D24*
X0070010Y0090280D02*
Y0091340D01*
Y0092640D02*
Y0093700D01*
X0068960D02*
X0070010D01*
X0067910Y0093700D02*
X0068960D01*
X0065750Y0093700D02*
X0066810D01*
X0065750D02*
Y0094760D01*
X0064650Y0093700D02*
Y0094760D01*
X0062550Y0093700D02*
X0064650D01*
X0067910Y0090280D02*
X0070010D01*
X0065750Y0090280D02*
X0066810D01*
X0065750Y0089220D02*
Y0090280D01*
X0064650Y0089220D02*
Y0090280D01*
X0063600D02*
X0064650D01*
X0062550Y0090280D02*
X0063600D01*
X0062550Y0089220D02*
Y0090280D01*
X0075400Y0085250D02*
Y0086930D01*
X0074100Y0085250D02*
Y0086930D01*
X0073050Y0086650D02*
Y0087530D01*
X0079250Y0085080D02*
X0080990D01*
X0071110Y0088160D02*
Y0090280D01*
X0078530Y0095820D02*
Y0096730D01*
X0076850Y0095820D02*
X0078530D01*
X0071110Y0093700D02*
Y0094760D01*
X0062550Y0094760D02*
X0062550Y0093700D01*
D25*
X0077810Y0087970D02*
Y0088600D01*
X0078490Y0087900D02*
Y0088600D01*
D26*
X0061340Y0082950D02*
Y0088170D01*
Y0095810D02*
Y0101080D01*
D27*
X0069090Y0106700D02*
D03*
X0073290D02*
D03*
X0069090Y0078700D02*
D03*
X0081990D02*
D03*
X0086290D02*
D03*
X0077690D02*
D03*
X0093100Y0094700D02*
D03*
Y0091500D02*
D03*
Y0078700D02*
D03*
Y0088300D02*
D03*
Y0081900D02*
D03*
X0081790Y0106700D02*
D03*
X0077590D02*
D03*
X0073390Y0078700D02*
D03*
X0093100Y0085100D02*
D03*
X0081800Y0095900D02*
D03*
X0093100Y0097910D02*
D03*
D28*
X0094410Y0106700D02*
D03*
X0096950D02*
D03*
X0104640Y0080340D02*
D03*
X0102100D02*
D03*
X0104640Y0082880D02*
D03*
X0102100D02*
D03*
X0104640Y0085420D02*
D03*
X0102100D02*
D03*
X0104640Y0087960D02*
D03*
X0102100D02*
D03*
X0104640Y0090500D02*
D03*
X0102100D02*
D03*
X0104640Y0093040D02*
D03*
X0102100D02*
D03*
X0104640Y0095580D02*
D03*
X0102100D02*
D03*
X0104640Y0098120D02*
D03*
X0102100D02*
D03*
X0104640Y0100660D02*
D03*
X0102100D02*
D03*
X0104640Y0103200D02*
D03*
D29*
X0061340Y0082950D02*
D03*
X0058840Y0080450D02*
D03*
X0063840D02*
D03*
Y0085450D02*
D03*
X0058840D02*
D03*
X0061340Y0101080D02*
D03*
X0058840Y0103580D02*
D03*
X0063840D02*
D03*
Y0098580D02*
D03*
X0058840D02*
D03*
D30*
X0102100Y0103200D02*
D03*
D31*
X0059800Y0089810D02*
D03*
X0058920Y0088650D02*
D03*
X0058040D02*
D03*
X0058920Y0089810D02*
D03*
X0058040D02*
D03*
X0058920Y0094170D02*
D03*
Y0095330D02*
D03*
X0058040D02*
D03*
X0059800Y0094170D02*
D03*
X0058040D02*
D03*
X0083705Y0105625D02*
D03*
X0083700Y0106700D02*
D03*
X0083690Y0107790D02*
D03*
X0084780Y0107800D02*
D03*
Y0105600D02*
D03*
X0072080Y0080900D02*
D03*
X0085000Y0089920D02*
D03*
X0096200Y0095800D02*
D03*
Y0089260D02*
D03*
X0088500Y0090700D02*
D03*
X0084100D02*
D03*
X0087600Y0091350D02*
D03*
X0085000D02*
D03*
X0088500Y0092000D02*
D03*
X0084100D02*
D03*
X0087600Y0092650D02*
D03*
X0085000D02*
D03*
X0088500Y0093300D02*
D03*
X0084100D02*
D03*
X0087600Y0093950D02*
D03*
X0085000Y0093940D02*
D03*
Y0097910D02*
D03*
X0087600D02*
D03*
Y0104160D02*
D03*
Y0099160D02*
D03*
X0085000Y0100410D02*
D03*
X0087600D02*
D03*
X0085000Y0101660D02*
D03*
X0097200Y0104160D02*
D03*
X0085000Y0102910D02*
D03*
X0087600Y0102920D02*
D03*
X0070010Y0095590D02*
D03*
X0068120Y0092850D02*
D03*
X0062700Y0092600D02*
D03*
Y0091380D02*
D03*
X0064480D02*
D03*
X0087590Y0101660D02*
D03*
X0085000Y0104160D02*
D03*
Y0099160D02*
D03*
X0077810Y0088600D02*
D03*
X0078490D02*
D03*
X0080980Y0086570D02*
D03*
Y0085870D02*
D03*
X0093080Y0089920D02*
D03*
X0098200Y0102910D02*
D03*
Y0095580D02*
D03*
X0099200Y0103200D02*
D03*
Y0099160D02*
D03*
X0100200Y0100410D02*
D03*
Y0094310D02*
D03*
X0099200Y0098120D02*
D03*
Y0085420D02*
D03*
Y0081900D02*
D03*
X0097200Y0087960D02*
D03*
X0098200Y0089230D02*
D03*
X0098200Y0080700D02*
D03*
X0100200Y0091770D02*
D03*
Y0089920D02*
D03*
X0076530Y0087980D02*
D03*
X0073050Y0086650D02*
D03*
X0074100Y0086050D02*
D03*
X0075400D02*
D03*
Y0085250D02*
D03*
X0074100D02*
D03*
X0076850Y0086310D02*
D03*
X0076840Y0085250D02*
D03*
X0080200Y0085080D02*
D03*
X0080990D02*
D03*
X0077650Y0095820D02*
D03*
X0076850Y0095820D02*
D03*
X0083150Y0107240D02*
D03*
Y0106160D02*
D03*
X0068120Y0091990D02*
D03*
X0060240Y0094750D02*
D03*
X0059360Y0095910D02*
D03*
X0070010Y0087290D02*
D03*
X0059360Y0088070D02*
D03*
X0060240Y0089230D02*
D03*
X0070490Y0096140D02*
D03*
X0068280Y0089400D02*
D03*
Y0088000D02*
D03*
X0067520Y0089400D02*
D03*
X0069040Y0087290D02*
D03*
X0069100Y0095320D02*
D03*
X0068340Y0094560D02*
D03*
X0067520Y0088700D02*
D03*
X0069040D02*
D03*
X0065220Y0092600D02*
D03*
X0065960D02*
D03*
X0061100D02*
D03*
X0061900Y0091380D02*
D03*
X0065960D02*
D03*
X0065220D02*
D03*
X0065590Y0091990D02*
D03*
X0064850D02*
D03*
X0061900Y0092600D02*
D03*
X0061100Y0091380D02*
D03*
X0067560Y0091560D02*
D03*
X0064480Y0092600D02*
D03*
X0061500Y0091990D02*
D03*
X0062300D02*
D03*
X0069040Y0088000D02*
D03*
X0058480Y0089230D02*
D03*
X0059360D02*
D03*
X0058480Y0090390D02*
D03*
X0057600D02*
D03*
X0058480Y0088070D02*
D03*
X0060240Y0090390D02*
D03*
X0057600Y0088070D02*
D03*
X0060240Y0092600D02*
D03*
X0059360Y0091380D02*
D03*
X0057600Y0092600D02*
D03*
Y0091380D02*
D03*
X0059360Y0090390D02*
D03*
X0058480Y0092600D02*
D03*
X0059360D02*
D03*
X0060240Y0091380D02*
D03*
X0058480D02*
D03*
Y0093590D02*
D03*
X0059360Y0094750D02*
D03*
Y0093590D02*
D03*
X0060240D02*
D03*
X0057600Y0089230D02*
D03*
X0058480Y0094750D02*
D03*
Y0095910D02*
D03*
X0057600D02*
D03*
Y0094750D02*
D03*
Y0093590D02*
D03*
X0064650Y0095640D02*
D03*
X0062550D02*
D03*
X0064650Y0096740D02*
D03*
X0066850D02*
D03*
X0062550D02*
D03*
X0063580D02*
D03*
Y0095640D02*
D03*
X0065750Y0096740D02*
D03*
Y0095640D02*
D03*
X0060240Y0096990D02*
D03*
X0062550Y0087240D02*
D03*
X0073050Y0085150D02*
D03*
Y0085900D02*
D03*
X0072100Y0089620D02*
D03*
X0080980Y0087350D02*
D03*
Y0088050D02*
D03*
X0096200Y0096950D02*
D03*
X0078530Y0096730D02*
D03*
X0063640Y0088340D02*
D03*
Y0087240D02*
D03*
X0064740Y0088340D02*
D03*
X0062550D02*
D03*
X0064740Y0087240D02*
D03*
X0065840Y0088340D02*
D03*
Y0087240D02*
D03*
X0067040D02*
D03*
X0060240Y0087050D02*
D03*
X0083390Y0080900D02*
D03*
X0085390D02*
D03*
X0084290D02*
D03*
X0070280D02*
D03*
X0071180D02*
D03*
X0063090Y0087790D02*
D03*
X0064190D02*
D03*
X0065290D02*
D03*
X0066390D02*
D03*
X0070010Y0096690D02*
D03*
X0057600Y0096990D02*
D03*
X0063060Y0096190D02*
D03*
X0064120D02*
D03*
X0066300D02*
D03*
X0065200D02*
D03*
X0057610Y0087050D02*
D03*
X0057590Y0083700D02*
D03*
Y0082210D02*
D03*
X0065080D02*
D03*
Y0083700D02*
D03*
X0060590Y0079210D02*
D03*
X0062080Y0079200D02*
D03*
X0057590Y0101830D02*
D03*
X0057580Y0100330D02*
D03*
X0065080Y0101830D02*
D03*
X0065090Y0100340D02*
D03*
X0060590Y0104830D02*
D03*
X0062080D02*
D03*
X0062090Y0103280D02*
D03*
X0060590D02*
D03*
X0059140Y0101830D02*
D03*
Y0100330D02*
D03*
X0063540Y0101830D02*
D03*
Y0100340D02*
D03*
X0061340Y0104080D02*
D03*
X0064340Y0101080D02*
D03*
X0058340Y0101090D02*
D03*
X0059140Y0083700D02*
D03*
Y0082210D02*
D03*
X0058340Y0082950D02*
D03*
X0063540Y0083700D02*
D03*
Y0082210D02*
D03*
X0064340Y0082950D02*
D03*
X0060590Y0080750D02*
D03*
X0062080D02*
D03*
X0061340Y0079950D02*
D03*
X0067560Y0092420D02*
D03*
X0068120Y0091130D02*
D03*
X0066800Y0089400D02*
D03*
Y0092880D02*
D03*
Y0091100D02*
D03*
X0069100Y0094560D02*
D03*
X0067580D02*
D03*
X0068340Y0095320D02*
D03*
X0068900Y0096680D02*
D03*
X0067580Y0095320D02*
D03*
X0068390Y0096090D02*
D03*
X0069460Y0096130D02*
D03*
X0069040Y0089400D02*
D03*
X0068280Y0088700D02*
D03*
X0073500Y0091020D02*
D03*
X0076100D02*
D03*
X0074800D02*
D03*
X0076100Y0092320D02*
D03*
X0073500D02*
D03*
X0074800D02*
D03*
Y0093620D02*
D03*
X0073500D02*
D03*
X0076100D02*
D03*
X0066800Y0094520D02*
D03*
X0063620Y0094690D02*
D03*
X0063600Y0089280D02*
D03*
M02*
