%FSAX43Y43*%
%MOMM*%
G71*
G01*
G75*
G04 Layer_Color=16711935*
%ADD10R,0.650X0.650*%
%ADD11C,1.000*%
%ADD12R,0.650X0.650*%
%ADD13R,0.900X0.900*%
%ADD14R,1.200X1.000*%
G04:AMPARAMS|DCode=15|XSize=3.4mm|YSize=3.4mm|CornerRadius=0.085mm|HoleSize=0mm|Usage=FLASHONLY|Rotation=90.000|XOffset=0mm|YOffset=0mm|HoleType=Round|Shape=RoundedRectangle|*
%AMROUNDEDRECTD15*
21,1,3.400,3.230,0,0,90.0*
21,1,3.230,3.400,0,0,90.0*
1,1,0.170,1.615,1.615*
1,1,0.170,1.615,-1.615*
1,1,0.170,-1.615,-1.615*
1,1,0.170,-1.615,1.615*
%
%ADD15ROUNDEDRECTD15*%
%ADD16O,0.800X0.350*%
%ADD17O,0.350X0.800*%
%ADD18C,0.200*%
%ADD19C,0.400*%
%ADD20C,0.254*%
%ADD21C,0.800*%
%ADD22C,1.000*%
%ADD23C,0.350*%
%ADD24C,0.650*%
%ADD25C,0.500*%
%ADD26C,1.100*%
%ADD27C,1.600*%
%ADD28C,1.500*%
%ADD29C,2.500*%
%ADD30R,1.500X1.500*%
%ADD31C,0.500*%
%ADD32C,0.100*%
%ADD33C,0.025*%
%ADD34C,0.150*%
%ADD35C,0.120*%
%ADD36C,0.300*%
%ADD37R,0.750X0.750*%
%ADD38C,2.000*%
%ADD39R,0.750X0.750*%
%ADD40R,1.000X1.000*%
%ADD41R,1.300X1.100*%
G04:AMPARAMS|DCode=42|XSize=3.5mm|YSize=3.5mm|CornerRadius=0.135mm|HoleSize=0mm|Usage=FLASHONLY|Rotation=90.000|XOffset=0mm|YOffset=0mm|HoleType=Round|Shape=RoundedRectangle|*
%AMROUNDEDRECTD42*
21,1,3.500,3.230,0,0,90.0*
21,1,3.230,3.500,0,0,90.0*
1,1,0.270,1.615,1.615*
1,1,0.270,1.615,-1.615*
1,1,0.270,-1.615,-1.615*
1,1,0.270,-1.615,1.615*
%
%ADD42ROUNDEDRECTD42*%
%ADD43O,0.900X0.450*%
%ADD44O,0.450X0.900*%
%ADD45C,1.800*%
%ADD46C,1.700*%
%ADD47C,2.700*%
%ADD48R,1.700X1.700*%
%ADD49C,0.600*%
D45*
X0069090Y0106700D02*
D03*
X0073290D02*
D03*
X0069090Y0078700D02*
D03*
X0081990D02*
D03*
X0086290D02*
D03*
X0077690D02*
D03*
X0093100Y0094700D02*
D03*
Y0091500D02*
D03*
Y0078700D02*
D03*
Y0088300D02*
D03*
Y0081900D02*
D03*
X0081790Y0106700D02*
D03*
X0077590D02*
D03*
X0073390Y0078700D02*
D03*
X0093100Y0085100D02*
D03*
X0081800Y0095900D02*
D03*
X0093100Y0097910D02*
D03*
D46*
X0094410Y0106700D02*
D03*
X0096950D02*
D03*
X0104640Y0080340D02*
D03*
X0102100D02*
D03*
X0104640Y0082880D02*
D03*
X0102100D02*
D03*
X0104640Y0085420D02*
D03*
X0102100D02*
D03*
X0104640Y0087960D02*
D03*
X0102100D02*
D03*
X0104640Y0090500D02*
D03*
X0102100D02*
D03*
X0104640Y0093040D02*
D03*
X0102100D02*
D03*
X0104640Y0095580D02*
D03*
X0102100D02*
D03*
X0104640Y0098120D02*
D03*
X0102100D02*
D03*
X0104640Y0100660D02*
D03*
X0102100D02*
D03*
X0104640Y0103200D02*
D03*
D47*
X0061340Y0082950D02*
D03*
X0058840Y0080450D02*
D03*
X0063840D02*
D03*
Y0085450D02*
D03*
X0058840D02*
D03*
X0061340Y0101080D02*
D03*
X0058840Y0103580D02*
D03*
X0063840D02*
D03*
Y0098580D02*
D03*
X0058840D02*
D03*
D48*
X0102100Y0103200D02*
D03*
D49*
X0073500Y0091020D02*
D03*
X0076100D02*
D03*
X0074800D02*
D03*
X0076100Y0092320D02*
D03*
X0073500D02*
D03*
X0074800D02*
D03*
Y0093620D02*
D03*
X0073500D02*
D03*
X0076100D02*
D03*
M02*
