%FSAX43Y43*%
%MOMM*%
G71*
G01*
G75*
G04 Layer_Color=65535*
%ADD10R,0.650X0.650*%
%ADD11R,0.650X0.650*%
%ADD12R,1.200X1.000*%
%ADD13R,0.900X0.900*%
%ADD14C,1.000*%
%ADD15O,0.350X0.800*%
%ADD16O,0.800X0.350*%
G04:AMPARAMS|DCode=17|XSize=3.4mm|YSize=3.4mm|CornerRadius=0.085mm|HoleSize=0mm|Usage=FLASHONLY|Rotation=90.000|XOffset=0mm|YOffset=0mm|HoleType=Round|Shape=RoundedRectangle|*
%AMROUNDEDRECTD17*
21,1,3.400,3.230,0,0,90.0*
21,1,3.230,3.400,0,0,90.0*
1,1,0.170,1.615,1.615*
1,1,0.170,1.615,-1.615*
1,1,0.170,-1.615,-1.615*
1,1,0.170,-1.615,1.615*
%
%ADD17ROUNDEDRECTD17*%
%ADD18C,0.200*%
%ADD19C,0.800*%
%ADD20C,1.000*%
%ADD21C,0.400*%
%ADD22C,0.650*%
%ADD23C,0.350*%
%ADD24C,0.254*%
%ADD25C,1.100*%
%ADD26C,0.500*%
%ADD27C,1.600*%
%ADD28R,1.500X1.500*%
%ADD29C,1.500*%
%ADD30C,2.500*%
%ADD31C,0.500*%
%ADD32C,0.100*%
%ADD33C,0.025*%
%ADD34C,0.150*%
%ADD35C,0.120*%
D18*
X0100865Y0103765D02*
X0101500Y0104400D01*
X0100830Y0079070D02*
X0105910D01*
X0100830Y0102565D02*
Y0104470D01*
X0105910D01*
Y0102565D02*
Y0104470D01*
Y0079070D02*
Y0102565D01*
X0100830Y0079070D02*
Y0102565D01*
X0060340Y0104230D02*
X0062340D01*
X0064490Y0100080D02*
Y0102080D01*
X0060340Y0097930D02*
X0062340D01*
X0058190Y0100080D02*
Y0102080D01*
X0060340Y0086100D02*
X0062340D01*
X0064490Y0081950D02*
Y0083950D01*
X0060340Y0079800D02*
X0062340D01*
X0058190Y0081950D02*
Y0083950D01*
X0093010Y0107300D02*
X0093810Y0108100D01*
X0093010Y0105300D02*
Y0108100D01*
X0098350Y0105300D02*
Y0108100D01*
X0093010D02*
X0098350D01*
X0093010Y0105300D02*
X0098350D01*
X0059010Y0077170D02*
Y0078170D01*
X0059510D01*
X0059676Y0078003D01*
Y0077670D01*
X0059510Y0077503D01*
X0059010D01*
X0059343D02*
X0059676Y0077170D01*
X0060676Y0078170D02*
X0060010D01*
Y0077670D01*
X0060343D01*
X0060010D01*
Y0077170D01*
X0061009Y0077003D02*
X0061676D01*
X0062009Y0077170D02*
Y0078170D01*
X0062509D01*
X0062675Y0078003D01*
Y0077670D01*
X0062509Y0077503D01*
X0062009D01*
X0063009Y0077170D02*
Y0077836D01*
X0063342Y0078170D01*
X0063675Y0077836D01*
Y0077170D01*
Y0077670D01*
X0063009D01*
X0059090Y0106060D02*
Y0107060D01*
X0059590D01*
X0059756Y0106893D01*
Y0106560D01*
X0059590Y0106393D01*
X0059090D01*
X0059423D02*
X0059756Y0106060D01*
X0060756Y0107060D02*
X0060090D01*
Y0106560D01*
X0060423D01*
X0060090D01*
Y0106060D01*
X0061089Y0105893D02*
X0061756D01*
X0062089Y0107060D02*
X0062422D01*
X0062256D01*
Y0106060D01*
X0062089D01*
X0062422D01*
X0063422Y0107060D02*
X0063089D01*
X0062922Y0106893D01*
Y0106227D01*
X0063089Y0106060D01*
X0063422D01*
X0063589Y0106227D01*
Y0106893D01*
X0063422Y0107060D01*
D32*
X0073350Y0089020D02*
G03*
X0073350Y0089020I-0000200J0000000D01*
G01*
X0072300Y0089620D02*
X0072600D01*
X0077000D02*
X0077500D01*
Y0090120D01*
Y0094520D02*
Y0095020D01*
X0077000D02*
X0077500D01*
X0072100D02*
X0072600D01*
X0072100Y0094520D02*
Y0095020D01*
Y0089820D02*
Y0090120D01*
Y0089820D02*
X0072300Y0089620D01*
X0104900Y0078033D02*
Y0077500D01*
X0104367Y0078033D01*
X0104234D01*
X0104100Y0077900D01*
Y0077633D01*
X0104234Y0077500D01*
Y0078300D02*
X0104100Y0078433D01*
Y0078700D01*
X0104234Y0078833D01*
X0104767D01*
X0104900Y0078700D01*
Y0078433D01*
X0104767Y0078300D01*
X0104234D01*
X0102400Y0077600D02*
Y0077867D01*
Y0077733D01*
X0101600D01*
X0101734Y0077600D01*
X0102267Y0078266D02*
X0102400Y0078400D01*
Y0078666D01*
X0102267Y0078800D01*
X0101734D01*
X0101600Y0078666D01*
Y0078400D01*
X0101734Y0078266D01*
X0101867D01*
X0102000Y0078400D01*
Y0078800D01*
X0102400Y0105000D02*
Y0105267D01*
Y0105133D01*
X0101600D01*
X0101734Y0105000D01*
X0105000Y0105433D02*
Y0104900D01*
X0104467Y0105433D01*
X0104334D01*
X0104200Y0105300D01*
Y0105033D01*
X0104334Y0104900D01*
D33*
X0052780Y0096020D02*
Y0096985D01*
X0053415Y0097011D02*
Y0097366D01*
X0052018Y0096299D02*
Y0097366D01*
X0052806Y0097341D02*
Y0097366D01*
X0053720Y0096706D02*
Y0097366D01*
Y0096020D02*
Y0096045D01*
X0053695Y0096731D02*
Y0097366D01*
Y0096020D02*
Y0096071D01*
X0053669Y0096757D02*
Y0097366D01*
Y0096020D02*
Y0096122D01*
X0053644Y0096782D02*
Y0097366D01*
Y0096020D02*
Y0096147D01*
X0053618Y0096807D02*
Y0097366D01*
Y0096020D02*
Y0096172D01*
X0053593Y0096833D02*
Y0097366D01*
Y0096020D02*
Y0096198D01*
X0053568Y0096858D02*
Y0097366D01*
Y0096020D02*
Y0096249D01*
X0053542Y0096884D02*
Y0097366D01*
Y0096020D02*
Y0096274D01*
X0053517Y0096909D02*
Y0097366D01*
Y0096020D02*
Y0096299D01*
X0053491Y0096934D02*
Y0097366D01*
Y0096020D02*
Y0096325D01*
X0053466Y0096960D02*
Y0097366D01*
Y0096020D02*
Y0096350D01*
X0053441Y0096985D02*
Y0097366D01*
Y0096020D02*
Y0096401D01*
X0053415Y0096020D02*
Y0096426D01*
X0053390Y0097011D02*
Y0097366D01*
Y0096020D02*
Y0096452D01*
X0053364Y0097036D02*
Y0097366D01*
Y0096020D02*
Y0096477D01*
X0053339Y0097061D02*
Y0097366D01*
Y0096020D02*
Y0096503D01*
X0053314Y0097087D02*
Y0097366D01*
Y0096020D02*
Y0096528D01*
X0053288Y0097112D02*
Y0097366D01*
Y0096020D02*
Y0096553D01*
X0053263Y0097112D02*
Y0097366D01*
Y0096020D02*
Y0096579D01*
X0053237Y0097138D02*
Y0097366D01*
Y0096020D02*
Y0096604D01*
X0053212Y0097163D02*
Y0097366D01*
Y0096020D02*
Y0096630D01*
X0053187Y0097163D02*
Y0097366D01*
Y0096020D02*
Y0096655D01*
X0053161Y0097188D02*
Y0097366D01*
Y0096020D02*
Y0096680D01*
X0053136Y0097188D02*
Y0097366D01*
Y0096020D02*
Y0096706D01*
X0053110Y0097214D02*
Y0097366D01*
Y0096020D02*
Y0096731D01*
X0053085Y0097239D02*
Y0097366D01*
Y0096020D02*
Y0096757D01*
X0053060Y0097239D02*
Y0097366D01*
Y0096020D02*
Y0096782D01*
X0053034Y0097265D02*
Y0097366D01*
Y0096020D02*
Y0096807D01*
X0053009Y0097265D02*
Y0097366D01*
Y0096020D02*
Y0096833D01*
X0052983Y0105875D02*
Y0106180D01*
Y0105012D02*
Y0105342D01*
Y0104046D02*
Y0104681D01*
Y0102700D02*
Y0103640D01*
Y0101862D02*
Y0102167D01*
Y0101075D02*
Y0101329D01*
Y0100440D02*
Y0100744D01*
Y0099855D02*
Y0100109D01*
Y0098814D02*
Y0099754D01*
Y0097849D02*
Y0098484D01*
Y0097290D02*
Y0097366D01*
Y0096020D02*
Y0096858D01*
X0052958Y0105850D02*
Y0106180D01*
Y0105012D02*
Y0105342D01*
Y0103970D02*
Y0104758D01*
Y0102700D02*
Y0103640D01*
Y0101837D02*
Y0102167D01*
Y0101075D02*
Y0101329D01*
Y0100414D02*
Y0100770D01*
Y0099855D02*
Y0100109D01*
Y0098814D02*
Y0099754D01*
Y0097773D02*
Y0098560D01*
Y0097290D02*
Y0097366D01*
Y0096020D02*
Y0096884D01*
X0052933Y0105875D02*
Y0106180D01*
Y0105012D02*
Y0105342D01*
Y0103919D02*
Y0104834D01*
Y0102700D02*
Y0103640D01*
Y0101862D02*
Y0102167D01*
Y0101075D02*
Y0101329D01*
Y0100414D02*
Y0100770D01*
Y0099855D02*
Y0100109D01*
Y0098814D02*
Y0099754D01*
Y0097747D02*
Y0098611D01*
Y0097315D02*
Y0097366D01*
Y0096020D02*
Y0096909D01*
X0052907Y0105875D02*
Y0106180D01*
Y0105012D02*
Y0105342D01*
Y0103869D02*
Y0104859D01*
Y0102700D02*
Y0103640D01*
Y0101862D02*
Y0102167D01*
Y0101075D02*
Y0101329D01*
Y0100389D02*
Y0100795D01*
Y0099855D02*
Y0100109D01*
Y0098814D02*
Y0099754D01*
Y0097696D02*
Y0098662D01*
Y0097315D02*
Y0097366D01*
Y0096020D02*
Y0096934D01*
X0052882Y0105875D02*
Y0106180D01*
Y0105012D02*
Y0105342D01*
Y0103843D02*
Y0104885D01*
Y0102700D02*
Y0103640D01*
Y0101862D02*
Y0102167D01*
Y0101075D02*
Y0101329D01*
Y0100363D02*
Y0100795D01*
Y0099855D02*
Y0100109D01*
Y0098814D02*
Y0099754D01*
Y0097696D02*
Y0098687D01*
Y0097315D02*
Y0097366D01*
Y0096020D02*
Y0096934D01*
X0052856Y0105875D02*
Y0106180D01*
Y0105012D02*
Y0105342D01*
Y0104478D02*
Y0104910D01*
Y0103792D02*
Y0104250D01*
Y0102700D02*
Y0103640D01*
Y0101862D02*
Y0102167D01*
Y0101075D02*
Y0101329D01*
Y0100363D02*
Y0100821D01*
Y0099855D02*
Y0100109D01*
Y0098814D02*
Y0099754D01*
Y0098331D02*
Y0098687D01*
Y0097671D02*
Y0098027D01*
Y0097341D02*
Y0097366D01*
Y0096020D02*
Y0096960D01*
X0052831Y0105875D02*
Y0106180D01*
Y0105012D02*
Y0105342D01*
Y0104529D02*
Y0104935D01*
Y0103792D02*
Y0104173D01*
Y0102700D02*
Y0103005D01*
Y0101862D02*
Y0102167D01*
Y0101075D02*
Y0101329D01*
Y0100338D02*
Y0100821D01*
Y0099855D02*
Y0100109D01*
Y0098814D02*
Y0099119D01*
Y0098382D02*
Y0098712D01*
Y0097671D02*
Y0098001D01*
Y0097341D02*
Y0097366D01*
Y0096020D02*
Y0096960D01*
X0052806Y0105875D02*
Y0106180D01*
Y0105012D02*
Y0105342D01*
Y0104580D02*
Y0104935D01*
Y0103767D02*
Y0104123D01*
Y0102700D02*
Y0103005D01*
Y0101862D02*
Y0102167D01*
Y0101075D02*
Y0101329D01*
Y0100338D02*
Y0100846D01*
Y0099855D02*
Y0100109D01*
Y0098814D02*
Y0099119D01*
Y0098382D02*
Y0098712D01*
Y0097646D02*
Y0097976D01*
Y0096020D02*
Y0096985D01*
X0052780Y0105875D02*
Y0106180D01*
Y0105012D02*
Y0105342D01*
Y0104580D02*
Y0104935D01*
Y0103742D02*
Y0104097D01*
Y0102700D02*
Y0103005D01*
Y0101862D02*
Y0102167D01*
Y0101075D02*
Y0101329D01*
Y0100617D02*
Y0100871D01*
Y0100313D02*
Y0100592D01*
Y0099855D02*
Y0100109D01*
Y0098814D02*
Y0099119D01*
Y0098382D02*
Y0098712D01*
Y0097646D02*
Y0097976D01*
X0052755Y0105875D02*
Y0106180D01*
Y0105012D02*
Y0105342D01*
Y0104910D02*
Y0104935D01*
Y0103742D02*
Y0104072D01*
Y0102700D02*
Y0103005D01*
Y0101862D02*
Y0102167D01*
Y0101075D02*
Y0101329D01*
Y0100643D02*
Y0100871D01*
Y0100313D02*
Y0100567D01*
Y0099855D02*
Y0100109D01*
Y0098814D02*
Y0099119D01*
Y0098357D02*
Y0098712D01*
Y0096020D02*
Y0096985D01*
X0052729Y0105850D02*
Y0106180D01*
Y0105012D02*
Y0105342D01*
Y0103742D02*
Y0104072D01*
Y0102700D02*
Y0103005D01*
Y0101862D02*
Y0102167D01*
Y0101075D02*
Y0101329D01*
Y0100643D02*
Y0100897D01*
Y0100287D02*
Y0100541D01*
Y0099855D02*
Y0100109D01*
Y0098814D02*
Y0099119D01*
Y0098230D02*
Y0098712D01*
Y0096020D02*
Y0096985D01*
X0052704Y0105012D02*
Y0106180D01*
Y0103716D02*
Y0104072D01*
Y0102700D02*
Y0103589D01*
Y0101862D02*
Y0102167D01*
Y0101075D02*
Y0101329D01*
Y0100668D02*
Y0100897D01*
Y0100262D02*
Y0100541D01*
Y0099855D02*
Y0100109D01*
Y0098814D02*
Y0099703D01*
Y0098027D02*
Y0098687D01*
Y0096020D02*
Y0096985D01*
X0052679Y0105012D02*
Y0106180D01*
Y0103716D02*
Y0104046D01*
Y0102700D02*
Y0103589D01*
Y0101862D02*
Y0102167D01*
Y0101075D02*
Y0101329D01*
Y0100668D02*
Y0100922D01*
Y0100262D02*
Y0100541D01*
Y0099855D02*
Y0100109D01*
Y0098814D02*
Y0099703D01*
Y0097874D02*
Y0098662D01*
Y0096020D02*
Y0096960D01*
X0052653Y0105012D02*
Y0106180D01*
Y0103716D02*
Y0104046D01*
Y0102700D02*
Y0103589D01*
Y0101862D02*
Y0102167D01*
Y0101075D02*
Y0101329D01*
Y0100694D02*
Y0100922D01*
Y0100236D02*
Y0100516D01*
Y0099855D02*
Y0100109D01*
Y0098814D02*
Y0099703D01*
Y0097798D02*
Y0098636D01*
Y0096020D02*
Y0096960D01*
X0052628Y0105012D02*
Y0106180D01*
Y0103716D02*
Y0104046D01*
Y0102700D02*
Y0103589D01*
Y0101862D02*
Y0102167D01*
Y0101075D02*
Y0101329D01*
Y0100719D02*
Y0100948D01*
Y0100236D02*
Y0100490D01*
Y0099855D02*
Y0100109D01*
Y0098814D02*
Y0099703D01*
Y0097747D02*
Y0098585D01*
Y0096020D02*
Y0096934D01*
X0052602Y0105012D02*
Y0106180D01*
Y0103716D02*
Y0104046D01*
Y0102700D02*
Y0103589D01*
Y0101862D02*
Y0102167D01*
Y0101075D02*
Y0101329D01*
Y0100719D02*
Y0100973D01*
Y0100211D02*
Y0100490D01*
Y0099855D02*
Y0100109D01*
Y0098814D02*
Y0099703D01*
Y0097722D02*
Y0098509D01*
Y0096020D02*
Y0096934D01*
X0052577Y0105012D02*
Y0106180D01*
Y0103716D02*
Y0104072D01*
Y0102700D02*
Y0103589D01*
Y0101862D02*
Y0102167D01*
Y0101075D02*
Y0101329D01*
Y0100744D02*
Y0100973D01*
Y0100211D02*
Y0100465D01*
Y0099855D02*
Y0100109D01*
Y0098814D02*
Y0099703D01*
Y0097696D02*
Y0098382D01*
Y0096020D02*
Y0096884D01*
X0052552Y0105850D02*
Y0106180D01*
Y0105012D02*
Y0105342D01*
Y0103742D02*
Y0104072D01*
Y0102700D02*
Y0103005D01*
Y0101862D02*
Y0102167D01*
Y0101075D02*
Y0101329D01*
Y0100744D02*
Y0100998D01*
Y0100186D02*
Y0100465D01*
Y0099855D02*
Y0100109D01*
Y0098814D02*
Y0099119D01*
Y0097696D02*
Y0098204D01*
Y0096020D02*
Y0096858D01*
X0052526Y0105875D02*
Y0106180D01*
Y0105012D02*
Y0105342D01*
Y0103742D02*
Y0104097D01*
Y0102700D02*
Y0103005D01*
Y0101862D02*
Y0102167D01*
Y0101075D02*
Y0101329D01*
Y0100770D02*
Y0100998D01*
Y0100160D02*
Y0100440D01*
Y0099855D02*
Y0100109D01*
Y0098814D02*
Y0099119D01*
Y0097671D02*
Y0098052D01*
Y0096020D02*
Y0096807D01*
X0052501Y0105875D02*
Y0106180D01*
Y0105012D02*
Y0105342D01*
Y0104605D02*
Y0104935D01*
Y0103742D02*
Y0104097D01*
Y0102700D02*
Y0103005D01*
Y0101862D02*
Y0102167D01*
Y0101075D02*
Y0101329D01*
Y0100795D02*
Y0101024D01*
Y0100160D02*
Y0100440D01*
Y0099855D02*
Y0100109D01*
Y0098814D02*
Y0099119D01*
Y0097671D02*
Y0098001D01*
Y0097341D02*
Y0097366D01*
Y0096020D02*
Y0096706D01*
X0052475Y0105875D02*
Y0106180D01*
Y0105012D02*
Y0105342D01*
Y0104580D02*
Y0104935D01*
Y0103767D02*
Y0104148D01*
Y0102700D02*
Y0103005D01*
Y0101862D02*
Y0102167D01*
Y0101075D02*
Y0101329D01*
Y0100795D02*
Y0101024D01*
Y0100135D02*
Y0100414D01*
Y0099855D02*
Y0100109D01*
Y0098814D02*
Y0099119D01*
Y0098382D02*
Y0098687D01*
Y0097671D02*
Y0098001D01*
Y0097341D02*
Y0097366D01*
Y0096020D02*
Y0096503D01*
X0052450Y0105875D02*
Y0106180D01*
Y0105012D02*
Y0105342D01*
Y0104529D02*
Y0104910D01*
Y0103792D02*
Y0104173D01*
Y0102700D02*
Y0103005D01*
Y0101837D02*
Y0102167D01*
Y0101075D02*
Y0101329D01*
Y0100821D02*
Y0101049D01*
Y0100135D02*
Y0100389D01*
Y0099855D02*
Y0100109D01*
Y0098814D02*
Y0099119D01*
Y0098357D02*
Y0098687D01*
Y0097696D02*
Y0098001D01*
Y0097315D02*
Y0097366D01*
Y0096020D02*
Y0096198D01*
X0052425Y0105875D02*
Y0106180D01*
Y0105012D02*
Y0105342D01*
Y0104453D02*
Y0104910D01*
Y0103818D02*
Y0104275D01*
Y0102700D02*
Y0103615D01*
Y0101430D02*
Y0102573D01*
Y0100821D02*
Y0101329D01*
Y0099855D02*
Y0100389D01*
Y0098814D02*
Y0099728D01*
Y0098306D02*
Y0098662D01*
Y0097696D02*
Y0098052D01*
Y0097290D02*
Y0097366D01*
Y0096020D02*
Y0096096D01*
X0052399Y0105875D02*
Y0106180D01*
Y0105012D02*
Y0105342D01*
Y0103843D02*
Y0104885D01*
Y0102700D02*
Y0103615D01*
Y0101430D02*
Y0102573D01*
Y0100846D02*
Y0101329D01*
Y0099855D02*
Y0100363D01*
Y0098814D02*
Y0099728D01*
Y0097722D02*
Y0098662D01*
Y0097265D02*
Y0097366D01*
Y0096020D02*
Y0096071D01*
X0052374Y0105875D02*
Y0106180D01*
Y0105012D02*
Y0105342D01*
Y0103869D02*
Y0104859D01*
Y0102700D02*
Y0103615D01*
Y0101430D02*
Y0102573D01*
Y0100871D02*
Y0101329D01*
Y0099855D02*
Y0100363D01*
Y0098814D02*
Y0099728D01*
Y0097747D02*
Y0098636D01*
Y0097265D02*
Y0097366D01*
Y0096020D02*
Y0096045D01*
X0052348Y0105875D02*
Y0106180D01*
Y0105012D02*
Y0105342D01*
Y0103919D02*
Y0104808D01*
Y0102700D02*
Y0103615D01*
Y0101430D02*
Y0102573D01*
Y0100871D02*
Y0101329D01*
Y0099855D02*
Y0100338D01*
Y0098814D02*
Y0099728D01*
Y0097773D02*
Y0098611D01*
Y0097214D02*
Y0097366D01*
X0052323Y0105850D02*
Y0106180D01*
Y0105012D02*
Y0105342D01*
Y0103970D02*
Y0104758D01*
Y0102700D02*
Y0103615D01*
Y0101430D02*
Y0102573D01*
Y0100897D02*
Y0101329D01*
Y0099855D02*
Y0100338D01*
Y0098814D02*
Y0099728D01*
Y0097823D02*
Y0098560D01*
Y0097188D02*
Y0097366D01*
X0052298Y0105875D02*
Y0106180D01*
Y0105037D02*
Y0105342D01*
Y0104072D02*
Y0104656D01*
Y0102700D02*
Y0103615D01*
Y0101430D02*
Y0102573D01*
Y0100897D02*
Y0101329D01*
Y0099881D02*
Y0100313D01*
Y0098814D02*
Y0099728D01*
Y0097900D02*
Y0098484D01*
Y0097138D02*
Y0097366D01*
X0052272Y0097036D02*
Y0097366D01*
X0052247Y0096934D02*
Y0097366D01*
X0052221Y0096655D02*
Y0097366D01*
X0052196Y0096426D02*
Y0097366D01*
Y0096020D02*
Y0096045D01*
X0052171Y0096350D02*
Y0097366D01*
Y0096020D02*
Y0096045D01*
X0052145Y0096325D02*
Y0097366D01*
Y0096020D02*
Y0096045D01*
X0052120Y0096299D02*
Y0097366D01*
Y0096020D02*
Y0096071D01*
X0052094Y0096299D02*
Y0097366D01*
Y0096020D02*
Y0096071D01*
X0052069Y0096274D02*
Y0097366D01*
Y0096020D02*
Y0096096D01*
X0052044Y0096299D02*
Y0097366D01*
Y0096020D02*
Y0096122D01*
X0052018Y0096020D02*
Y0096122D01*
X0051993Y0096299D02*
Y0097366D01*
Y0096020D02*
Y0096147D01*
X0051967Y0096325D02*
Y0097366D01*
Y0096020D02*
Y0096172D01*
X0051942Y0096325D02*
Y0097366D01*
Y0096020D02*
Y0096198D01*
X0051917Y0096350D02*
Y0097366D01*
Y0096020D02*
Y0096223D01*
X0051891Y0096376D02*
Y0097366D01*
Y0096020D02*
Y0096249D01*
X0051866Y0096401D02*
Y0097366D01*
Y0096020D02*
Y0096274D01*
X0051840Y0096426D02*
Y0097366D01*
Y0096020D02*
Y0096299D01*
X0051815Y0096452D02*
Y0097366D01*
Y0096020D02*
Y0096325D01*
X0051790Y0096477D02*
Y0097366D01*
Y0096020D02*
Y0096350D01*
X0051764Y0096503D02*
Y0097366D01*
Y0096020D02*
Y0096401D01*
X0051739Y0096528D02*
Y0097366D01*
Y0096020D02*
Y0096426D01*
X0051713Y0096579D02*
Y0097366D01*
Y0096020D02*
Y0096452D01*
X0051688Y0096604D02*
Y0097366D01*
Y0096020D02*
Y0096503D01*
X0051663Y0096655D02*
Y0097366D01*
Y0096020D02*
Y0096553D01*
X0051637Y0096680D02*
Y0097366D01*
Y0096020D02*
Y0096579D01*
X0051612Y0096731D02*
Y0097366D01*
Y0096020D02*
Y0096630D01*
X0051586Y0096757D02*
Y0097366D01*
Y0096020D02*
Y0096655D01*
X0051561Y0096807D02*
Y0097366D01*
Y0096020D02*
Y0096706D01*
D34*
X0055240Y0078600D02*
X0054440D01*
Y0079000D01*
X0054574Y0079133D01*
X0054840D01*
X0054973Y0079000D01*
Y0078600D01*
Y0078867D02*
X0055240Y0079133D01*
Y0079800D02*
X0054440D01*
X0054840Y0079400D01*
Y0079933D01*
X0054574Y0080199D02*
X0054440Y0080333D01*
Y0080599D01*
X0054574Y0080733D01*
X0054707D01*
X0054840Y0080599D01*
Y0080466D01*
Y0080599D01*
X0054973Y0080733D01*
X0055107D01*
X0055240Y0080599D01*
Y0080333D01*
X0055107Y0080199D01*
X0055240Y0081399D02*
X0054440D01*
X0054840Y0080999D01*
Y0081532D01*
X0053220Y0078560D02*
X0052420D01*
Y0078960D01*
X0052554Y0079093D01*
X0052820D01*
X0052953Y0078960D01*
Y0078560D01*
Y0078827D02*
X0053220Y0079093D01*
X0052554Y0079360D02*
X0052420Y0079493D01*
Y0079760D01*
X0052554Y0079893D01*
X0052687D01*
X0052820Y0079760D01*
Y0079626D01*
Y0079760D01*
X0052953Y0079893D01*
X0053087D01*
X0053220Y0079760D01*
Y0079493D01*
X0053087Y0079360D01*
X0053220Y0080159D02*
Y0080426D01*
Y0080293D01*
X0052420D01*
X0052554Y0080159D01*
X0052420Y0081359D02*
Y0080826D01*
X0052820D01*
X0052687Y0081093D01*
Y0081226D01*
X0052820Y0081359D01*
X0053087D01*
X0053220Y0081226D01*
Y0080959D01*
X0053087Y0080826D01*
X0055240Y0085700D02*
X0054440D01*
Y0086100D01*
X0054574Y0086233D01*
X0054840D01*
X0054973Y0086100D01*
Y0085700D01*
Y0085967D02*
X0055240Y0086233D01*
X0055107Y0086500D02*
X0055240Y0086633D01*
Y0086900D01*
X0055107Y0087033D01*
X0054574D01*
X0054440Y0086900D01*
Y0086633D01*
X0054574Y0086500D01*
X0054707D01*
X0054840Y0086633D01*
Y0087033D01*
X0055240Y0087299D02*
Y0087566D01*
Y0087433D01*
X0054440D01*
X0054574Y0087299D01*
X0054440Y0088499D02*
Y0087966D01*
X0054840D01*
X0054707Y0088233D01*
Y0088366D01*
X0054840Y0088499D01*
X0055107D01*
X0055240Y0088366D01*
Y0088099D01*
X0055107Y0087966D01*
X0053240Y0085700D02*
X0052440D01*
Y0086100D01*
X0052574Y0086233D01*
X0052840D01*
X0052973Y0086100D01*
Y0085700D01*
Y0085967D02*
X0053240Y0086233D01*
X0052574Y0086500D02*
X0052440Y0086633D01*
Y0086900D01*
X0052574Y0087033D01*
X0052707D01*
X0052840Y0086900D01*
X0052973Y0087033D01*
X0053107D01*
X0053240Y0086900D01*
Y0086633D01*
X0053107Y0086500D01*
X0052973D01*
X0052840Y0086633D01*
X0052707Y0086500D01*
X0052574D01*
X0052840Y0086633D02*
Y0086900D01*
X0052440Y0087833D02*
X0052574Y0087566D01*
X0052840Y0087299D01*
X0053107D01*
X0053240Y0087433D01*
Y0087699D01*
X0053107Y0087833D01*
X0052973D01*
X0052840Y0087699D01*
Y0087299D01*
X0052574Y0088099D02*
X0052440Y0088233D01*
Y0088499D01*
X0052574Y0088632D01*
X0052707D01*
X0052840Y0088499D01*
X0052973Y0088632D01*
X0053107D01*
X0053240Y0088499D01*
Y0088233D01*
X0053107Y0088099D01*
X0052973D01*
X0052840Y0088233D01*
X0052707Y0088099D01*
X0052574D01*
X0052840Y0088233D02*
Y0088499D01*
X0087833Y0094966D02*
X0087700Y0095100D01*
X0087433D01*
X0087300Y0094966D01*
Y0094433D01*
X0087433Y0094300D01*
X0087700D01*
X0087833Y0094433D01*
X0088100Y0095100D02*
Y0094300D01*
X0088633D01*
X0088899Y0095100D02*
Y0094300D01*
Y0094567D01*
X0089433Y0095100D01*
X0089033Y0094700D01*
X0089433Y0094300D01*
X0090099Y0095100D02*
X0089833D01*
X0089699Y0094966D01*
Y0094433D01*
X0089833Y0094300D01*
X0090099D01*
X0090232Y0094433D01*
Y0094966D01*
X0090099Y0095100D01*
X0090499D02*
Y0094433D01*
X0090632Y0094300D01*
X0090899D01*
X0091032Y0094433D01*
Y0095100D01*
X0091299D02*
X0091832D01*
X0091565D01*
Y0094300D01*
X0086024Y0080503D02*
X0085890Y0080370D01*
Y0080103D01*
X0086024Y0079970D01*
X0086557D01*
X0086690Y0080103D01*
Y0080370D01*
X0086557Y0080503D01*
X0086290D01*
Y0080237D01*
X0086690Y0080770D02*
X0085890D01*
X0086690Y0081303D01*
X0085890D01*
Y0081569D02*
X0086690D01*
Y0081969D01*
X0086557Y0082103D01*
X0086024D01*
X0085890Y0081969D01*
Y0081569D01*
X0086690Y0082369D02*
Y0082636D01*
Y0082503D01*
X0085890D01*
X0086024Y0082369D01*
X0081524Y0103023D02*
X0081390Y0102890D01*
Y0102623D01*
X0081524Y0102490D01*
X0082057D01*
X0082190Y0102623D01*
Y0102890D01*
X0082057Y0103023D01*
X0081790D01*
Y0102757D01*
X0082190Y0103290D02*
X0081390D01*
X0082190Y0103823D01*
X0081390D01*
Y0104089D02*
X0082190D01*
Y0104489D01*
X0082057Y0104623D01*
X0081524D01*
X0081390Y0104489D01*
Y0104089D01*
X0082190Y0105422D02*
Y0104889D01*
X0081657Y0105422D01*
X0081524D01*
X0081390Y0105289D01*
Y0105023D01*
X0081524Y0104889D01*
X0089200Y0079100D02*
Y0078300D01*
X0089600D01*
X0089733Y0078433D01*
Y0078966D01*
X0089600Y0079100D01*
X0089200D01*
X0090000D02*
X0090266D01*
X0090133D01*
Y0078300D01*
X0090000D01*
X0090266D01*
X0091066Y0079100D02*
X0090799D01*
X0090666Y0078966D01*
Y0078433D01*
X0090799Y0078300D01*
X0091066D01*
X0091199Y0078433D01*
Y0078966D01*
X0091066Y0079100D01*
X0091466Y0078966D02*
X0091599Y0079100D01*
X0091866D01*
X0091999Y0078966D01*
Y0078433D01*
X0091866Y0078300D01*
X0091599D01*
X0091466Y0078433D01*
Y0078966D01*
X0089200Y0082300D02*
Y0081500D01*
X0089600D01*
X0089733Y0081633D01*
Y0082166D01*
X0089600Y0082300D01*
X0089200D01*
X0090000D02*
X0090266D01*
X0090133D01*
Y0081500D01*
X0090000D01*
X0090266D01*
X0091066Y0082300D02*
X0090799D01*
X0090666Y0082166D01*
Y0081633D01*
X0090799Y0081500D01*
X0091066D01*
X0091199Y0081633D01*
Y0082166D01*
X0091066Y0082300D01*
X0091466Y0081500D02*
X0091733D01*
X0091599D01*
Y0082300D01*
X0091466Y0082166D01*
X0089200Y0085500D02*
Y0084700D01*
X0089600D01*
X0089733Y0084833D01*
Y0085366D01*
X0089600Y0085500D01*
X0089200D01*
X0090000D02*
X0090266D01*
X0090133D01*
Y0084700D01*
X0090000D01*
X0090266D01*
X0091066Y0085500D02*
X0090799D01*
X0090666Y0085366D01*
Y0084833D01*
X0090799Y0084700D01*
X0091066D01*
X0091199Y0084833D01*
Y0085366D01*
X0091066Y0085500D01*
X0091999Y0084700D02*
X0091466D01*
X0091999Y0085233D01*
Y0085366D01*
X0091866Y0085500D01*
X0091599D01*
X0091466Y0085366D01*
X0089200Y0088800D02*
Y0088000D01*
X0089600D01*
X0089733Y0088133D01*
Y0088666D01*
X0089600Y0088800D01*
X0089200D01*
X0090000D02*
X0090266D01*
X0090133D01*
Y0088000D01*
X0090000D01*
X0090266D01*
X0091066Y0088800D02*
X0090799D01*
X0090666Y0088666D01*
Y0088133D01*
X0090799Y0088000D01*
X0091066D01*
X0091199Y0088133D01*
Y0088666D01*
X0091066Y0088800D01*
X0091466Y0088666D02*
X0091599Y0088800D01*
X0091866D01*
X0091999Y0088666D01*
Y0088533D01*
X0091866Y0088400D01*
X0091733D01*
X0091866D01*
X0091999Y0088267D01*
Y0088133D01*
X0091866Y0088000D01*
X0091599D01*
X0091466Y0088133D01*
X0089200Y0091900D02*
Y0091100D01*
X0089600D01*
X0089733Y0091233D01*
Y0091766D01*
X0089600Y0091900D01*
X0089200D01*
X0090000D02*
X0090266D01*
X0090133D01*
Y0091100D01*
X0090000D01*
X0090266D01*
X0091066Y0091900D02*
X0090799D01*
X0090666Y0091766D01*
Y0091233D01*
X0090799Y0091100D01*
X0091066D01*
X0091199Y0091233D01*
Y0091766D01*
X0091066Y0091900D01*
X0091866Y0091100D02*
Y0091900D01*
X0091466Y0091500D01*
X0091999D01*
X0091540Y0106300D02*
Y0107100D01*
X0091940D01*
X0092073Y0106966D01*
Y0106700D01*
X0091940Y0106567D01*
X0091540D01*
X0092340Y0106300D02*
X0092606D01*
X0092473D01*
Y0107100D01*
X0092340Y0106966D01*
X0100840Y0106290D02*
Y0107090D01*
X0101240D01*
X0101373Y0106956D01*
Y0106690D01*
X0101240Y0106557D01*
X0100840D01*
X0102040Y0107090D02*
X0101773D01*
X0101640Y0106956D01*
Y0106423D01*
X0101773Y0106290D01*
X0102040D01*
X0102173Y0106423D01*
Y0106956D01*
X0102040Y0107090D01*
X0102439D02*
Y0106290D01*
X0102839D01*
X0102973Y0106423D01*
Y0106956D01*
X0102839Y0107090D01*
X0102439D01*
X0103239Y0106157D02*
X0103772D01*
X0104039Y0107090D02*
X0104306D01*
X0104172D01*
Y0106290D01*
X0104039D01*
X0104306D01*
X0104705D02*
Y0107090D01*
X0105239Y0106290D01*
Y0107090D01*
X0105505Y0106290D02*
X0105772D01*
X0105638D01*
Y0107090D01*
X0105505Y0106956D01*
X0082390Y0079970D02*
X0081590D01*
Y0080370D01*
X0081724Y0080503D01*
X0081990D01*
X0082123Y0080370D01*
Y0079970D01*
Y0080237D02*
X0082390Y0080503D01*
X0081590Y0081303D02*
Y0080770D01*
X0082390D01*
Y0081303D01*
X0081990Y0080770D02*
Y0081036D01*
X0081724Y0082103D02*
X0081590Y0081969D01*
Y0081703D01*
X0081724Y0081569D01*
X0081857D01*
X0081990Y0081703D01*
Y0081969D01*
X0082123Y0082103D01*
X0082257D01*
X0082390Y0081969D01*
Y0081703D01*
X0082257Y0081569D01*
X0081590Y0082902D02*
Y0082369D01*
X0082390D01*
Y0082902D01*
X0081990Y0082369D02*
Y0082636D01*
X0081590Y0083169D02*
Y0083702D01*
Y0083436D01*
X0082390D01*
X0077990Y0102490D02*
X0077190D01*
Y0102890D01*
X0077324Y0103023D01*
X0077590D01*
X0077723Y0102890D01*
Y0102490D01*
Y0102757D02*
X0077990Y0103023D01*
X0077190Y0103290D02*
X0077990Y0103823D01*
X0077190D02*
X0077990Y0103290D01*
X0077190Y0104089D02*
Y0104623D01*
Y0104356D01*
X0077990D01*
X0077190Y0104889D02*
X0077990Y0105422D01*
X0077190D02*
X0077990Y0104889D01*
X0086273Y0098186D02*
X0086140Y0098320D01*
X0085873D01*
X0085740Y0098186D01*
Y0098053D01*
X0085873Y0097920D01*
X0086140D01*
X0086273Y0097787D01*
Y0097653D01*
X0086140Y0097520D01*
X0085873D01*
X0085740Y0097653D01*
X0087073Y0098186D02*
X0086940Y0098320D01*
X0086673D01*
X0086540Y0098186D01*
Y0097653D01*
X0086673Y0097520D01*
X0086940D01*
X0087073Y0097653D01*
X0087339Y0097520D02*
Y0098053D01*
X0087606Y0098320D01*
X0087873Y0098053D01*
Y0097520D01*
Y0097920D01*
X0087339D01*
X0088139Y0097520D02*
Y0098320D01*
X0088672Y0097520D01*
Y0098320D01*
X0088939Y0097520D02*
Y0098320D01*
X0089206Y0098053D01*
X0089472Y0098320D01*
Y0097520D01*
X0090139Y0098320D02*
X0089872D01*
X0089739Y0098186D01*
Y0097653D01*
X0089872Y0097520D01*
X0090139D01*
X0090272Y0097653D01*
Y0098186D01*
X0090139Y0098320D01*
X0090538D02*
Y0097520D01*
X0090938D01*
X0091072Y0097653D01*
Y0098186D01*
X0090938Y0098320D01*
X0090538D01*
X0091871D02*
X0091338D01*
Y0097520D01*
X0091871D01*
X0091338Y0097920D02*
X0091605D01*
X0068680Y0079980D02*
X0069213D01*
X0069480Y0080247D01*
X0069213Y0080513D01*
X0068680D01*
Y0080780D02*
X0069480D01*
Y0081180D01*
X0069347Y0081313D01*
X0069213D01*
X0069080Y0081180D01*
Y0080780D01*
Y0081180D01*
X0068947Y0081313D01*
X0068814D01*
X0068680Y0081180D01*
Y0080780D01*
X0069480Y0081579D02*
X0068947D01*
X0068680Y0081846D01*
X0068947Y0082113D01*
X0069480D01*
X0069080D01*
Y0081579D01*
X0068680Y0082379D02*
Y0082912D01*
Y0082646D01*
X0069480D01*
Y0083179D02*
Y0083446D01*
Y0083312D01*
X0068680D01*
X0068814Y0083179D01*
X0081400Y0097170D02*
X0081933D01*
X0082200Y0097437D01*
X0081933Y0097703D01*
X0081400D01*
Y0097970D02*
X0082200D01*
Y0098370D01*
X0082067Y0098503D01*
X0081933D01*
X0081800Y0098370D01*
Y0097970D01*
Y0098370D01*
X0081667Y0098503D01*
X0081534D01*
X0081400Y0098370D01*
Y0097970D01*
X0082200Y0098769D02*
X0081667D01*
X0081400Y0099036D01*
X0081667Y0099303D01*
X0082200D01*
X0081800D01*
Y0098769D01*
X0081400Y0099569D02*
Y0100102D01*
Y0099836D01*
X0082200D01*
Y0100902D02*
Y0100369D01*
X0081667Y0100902D01*
X0081534D01*
X0081400Y0100769D01*
Y0100502D01*
X0081534Y0100369D01*
X0072990Y0079980D02*
X0073523D01*
X0073790Y0080247D01*
X0073523Y0080513D01*
X0072990D01*
X0073790Y0080780D02*
X0072990D01*
Y0081180D01*
X0073124Y0081313D01*
X0073390D01*
X0073523Y0081180D01*
Y0080780D01*
Y0081046D02*
X0073790Y0081313D01*
X0073923Y0081579D02*
Y0082113D01*
X0073790Y0082379D02*
X0073257D01*
X0072990Y0082646D01*
X0073257Y0082912D01*
X0073790D01*
X0073390D01*
Y0082379D01*
X0073790Y0083179D02*
X0072990D01*
X0073790Y0083712D01*
X0072990D01*
X0073790Y0083979D02*
X0073257D01*
X0072990Y0084245D01*
X0073257Y0084512D01*
X0073790D01*
X0073390D01*
Y0083979D01*
X0077290Y0079980D02*
X0077823D01*
X0078090Y0080247D01*
X0077823Y0080513D01*
X0077290D01*
X0078090Y0080780D02*
X0077290D01*
Y0081180D01*
X0077424Y0081313D01*
X0077690D01*
X0077823Y0081180D01*
Y0080780D01*
Y0081046D02*
X0078090Y0081313D01*
X0078223Y0081579D02*
Y0082113D01*
X0077290Y0082379D02*
X0078090D01*
Y0082779D01*
X0077957Y0082912D01*
X0077424D01*
X0077290Y0082779D01*
Y0082379D01*
Y0083179D02*
Y0083446D01*
Y0083312D01*
X0078090D01*
Y0083179D01*
Y0083446D01*
X0077424Y0084379D02*
X0077290Y0084245D01*
Y0083979D01*
X0077424Y0083845D01*
X0077957D01*
X0078090Y0083979D01*
Y0084245D01*
X0077957Y0084379D01*
X0077690D01*
Y0084112D01*
X0072890Y0101700D02*
X0073423D01*
X0073690Y0101967D01*
X0073423Y0102233D01*
X0072890D01*
X0073690Y0102500D02*
X0072890D01*
Y0102900D01*
X0073024Y0103033D01*
X0073290D01*
X0073423Y0102900D01*
Y0102500D01*
Y0102766D02*
X0073690Y0103033D01*
X0073823Y0103299D02*
Y0103833D01*
X0073690Y0104099D02*
X0072890D01*
Y0104499D01*
X0073024Y0104632D01*
X0073290D01*
X0073423Y0104499D01*
Y0104099D01*
X0073690Y0104899D02*
X0073157D01*
X0072890Y0105166D01*
X0073157Y0105432D01*
X0073690D01*
X0073290D01*
Y0104899D01*
X0068824Y0103033D02*
X0068690Y0102900D01*
Y0102633D01*
X0068824Y0102500D01*
X0069357D01*
X0069490Y0102633D01*
Y0102900D01*
X0069357Y0103033D01*
X0069090D01*
Y0102767D01*
X0069490Y0103300D02*
X0068690D01*
X0069490Y0103833D01*
X0068690D01*
Y0104099D02*
X0069490D01*
Y0104499D01*
X0069357Y0104633D01*
X0068824D01*
X0068690Y0104499D01*
Y0104099D01*
X0068824Y0104899D02*
X0068690Y0105033D01*
Y0105299D01*
X0068824Y0105432D01*
X0068957D01*
X0069090Y0105299D01*
Y0105166D01*
Y0105299D01*
X0069223Y0105432D01*
X0069357D01*
X0069490Y0105299D01*
Y0105033D01*
X0069357Y0104899D01*
X0056190Y0096550D02*
X0055390D01*
Y0096950D01*
X0055524Y0097083D01*
X0055790D01*
X0055923Y0096950D01*
Y0096550D01*
X0055524Y0097883D02*
X0055390Y0097750D01*
Y0097483D01*
X0055524Y0097350D01*
X0056057D01*
X0056190Y0097483D01*
Y0097750D01*
X0056057Y0097883D01*
X0055390Y0098149D02*
X0056190D01*
Y0098549D01*
X0056057Y0098683D01*
X0055923D01*
X0055790Y0098549D01*
Y0098149D01*
Y0098549D01*
X0055657Y0098683D01*
X0055524D01*
X0055390Y0098549D01*
Y0098149D01*
X0056323Y0098949D02*
Y0099482D01*
X0055390Y0100282D02*
Y0099749D01*
X0056190D01*
Y0100282D01*
X0055790Y0099749D02*
Y0100016D01*
X0056190Y0100549D02*
Y0100815D01*
Y0100682D01*
X0055390D01*
X0055524Y0100549D01*
Y0101215D02*
X0055390Y0101348D01*
Y0101615D01*
X0055524Y0101748D01*
X0055657D01*
X0055790Y0101615D01*
Y0101482D01*
Y0101615D01*
X0055923Y0101748D01*
X0056057D01*
X0056190Y0101615D01*
Y0101348D01*
X0056057Y0101215D01*
X0055524Y0102015D02*
X0055390Y0102148D01*
Y0102415D01*
X0055524Y0102548D01*
X0055657D01*
X0055790Y0102415D01*
Y0102281D01*
Y0102415D01*
X0055923Y0102548D01*
X0056057D01*
X0056190Y0102415D01*
Y0102148D01*
X0056057Y0102015D01*
X0055390Y0102815D02*
X0055923D01*
X0056190Y0103081D01*
X0055923Y0103348D01*
X0055390D01*
X0055524Y0103614D02*
X0055390Y0103748D01*
Y0104014D01*
X0055524Y0104148D01*
X0056057D01*
X0056190Y0104014D01*
Y0103748D01*
X0056057Y0103614D01*
X0055524D01*
X0056190Y0104414D02*
Y0104681D01*
Y0104547D01*
X0055390D01*
X0055524Y0104414D01*
X0055390Y0105081D02*
X0056190D01*
Y0105480D01*
X0056057Y0105614D01*
X0055923D01*
X0055790Y0105480D01*
Y0105081D01*
Y0105480D01*
X0055657Y0105614D01*
X0055524D01*
X0055390Y0105480D01*
Y0105081D01*
X0053934Y0099603D02*
X0053800Y0099470D01*
Y0099203D01*
X0053934Y0099070D01*
X0054067D01*
X0054200Y0099203D01*
Y0099470D01*
X0054333Y0099603D01*
X0054467D01*
X0054600Y0099470D01*
Y0099203D01*
X0054467Y0099070D01*
X0054600Y0099870D02*
X0053800D01*
X0054067Y0100136D01*
X0053800Y0100403D01*
X0054600D01*
Y0100669D02*
Y0100936D01*
Y0100803D01*
X0053800D01*
X0053934Y0100669D01*
X0054600Y0101869D02*
Y0101336D01*
X0054067Y0101869D01*
X0053934D01*
X0053800Y0101736D01*
Y0101469D01*
X0053934Y0101336D01*
Y0102136D02*
X0053800Y0102269D01*
Y0102536D01*
X0053934Y0102669D01*
X0054067D01*
X0054200Y0102536D01*
Y0102402D01*
Y0102536D01*
X0054333Y0102669D01*
X0054467D01*
X0054600Y0102536D01*
Y0102269D01*
X0054467Y0102136D01*
X0054600Y0102935D02*
Y0103202D01*
Y0103069D01*
X0053800D01*
X0053934Y0102935D01*
D35*
X0071670Y0088790D02*
Y0088207D01*
X0071787Y0088090D01*
X0072020D01*
X0072137Y0088207D01*
Y0088790D01*
X0072370Y0088090D02*
X0072603D01*
X0072486D01*
Y0088790D01*
X0072370Y0088673D01*
M02*
