%FSAX43Y43*%
%MOMM*%
G71*
G01*
G75*
G04 Layer_Color=8421504*
%ADD10R,0.650X0.650*%
%ADD11C,1.000*%
%ADD12R,0.650X0.650*%
%ADD13R,0.900X0.900*%
%ADD14R,1.200X1.000*%
G04:AMPARAMS|DCode=15|XSize=3.4mm|YSize=3.4mm|CornerRadius=0.085mm|HoleSize=0mm|Usage=FLASHONLY|Rotation=90.000|XOffset=0mm|YOffset=0mm|HoleType=Round|Shape=RoundedRectangle|*
%AMROUNDEDRECTD15*
21,1,3.400,3.230,0,0,90.0*
21,1,3.230,3.400,0,0,90.0*
1,1,0.170,1.615,1.615*
1,1,0.170,1.615,-1.615*
1,1,0.170,-1.615,-1.615*
1,1,0.170,-1.615,1.615*
%
%ADD15ROUNDEDRECTD15*%
%ADD16O,0.800X0.350*%
%ADD17O,0.350X0.800*%
%ADD18C,0.200*%
%ADD19C,0.400*%
%ADD20C,0.254*%
%ADD21C,0.800*%
%ADD22C,1.000*%
%ADD23C,0.350*%
%ADD24C,0.650*%
%ADD25C,0.500*%
%ADD26C,1.100*%
%ADD27C,1.600*%
%ADD28C,1.500*%
%ADD29C,2.500*%
%ADD30R,1.500X1.500*%
%ADD31C,0.500*%
%ADD32C,0.100*%
%ADD33C,0.025*%
%ADD34C,0.150*%
%ADD35C,0.120*%
G36*
X0075900Y0091220D02*
X0075000D01*
Y0092120D01*
X0075900D01*
Y0091220D01*
D02*
G37*
G36*
X0074600D02*
X0073700D01*
Y0092120D01*
X0074600D01*
Y0091220D01*
D02*
G37*
G36*
X0075900Y0092520D02*
X0075000D01*
Y0093420D01*
X0075900D01*
Y0092520D01*
D02*
G37*
G36*
X0074600D02*
X0073700D01*
Y0093420D01*
X0074600D01*
Y0092520D01*
D02*
G37*
D10*
X0072080Y0086180D02*
D03*
Y0085080D02*
D03*
X0073050Y0088630D02*
D03*
Y0087530D02*
D03*
X0052820Y0082290D02*
D03*
Y0083390D02*
D03*
X0054840Y0089420D02*
D03*
Y0090520D02*
D03*
X0063600Y0093700D02*
D03*
Y0092600D02*
D03*
X0068960Y0090280D02*
D03*
Y0091380D02*
D03*
X0063600Y0090280D02*
D03*
Y0091380D02*
D03*
X0078530Y0095820D02*
D03*
Y0094720D02*
D03*
X0068960Y0093700D02*
D03*
Y0092600D02*
D03*
X0074100Y0086930D02*
D03*
Y0088030D02*
D03*
X0075400D02*
D03*
Y0086930D02*
D03*
X0052840Y0090520D02*
D03*
Y0089420D02*
D03*
X0054840Y0082290D02*
D03*
Y0083390D02*
D03*
D12*
X0079850Y0088880D02*
D03*
X0080950D02*
D03*
X0071110Y0088160D02*
D03*
X0070010D02*
D03*
X0096200Y0078700D02*
D03*
X0095100D02*
D03*
Y0099160D02*
D03*
X0096200D02*
D03*
X0070010Y0094760D02*
D03*
X0071110D02*
D03*
X0061450Y0090280D02*
D03*
X0062550D02*
D03*
X0061450Y0089220D02*
D03*
X0062550D02*
D03*
X0095100Y0097910D02*
D03*
X0096200D02*
D03*
X0095100Y0085100D02*
D03*
Y0088300D02*
D03*
Y0091500D02*
D03*
Y0094700D02*
D03*
X0096200Y0100410D02*
D03*
X0071110Y0091340D02*
D03*
X0070010D02*
D03*
X0071110Y0092640D02*
D03*
X0070010D02*
D03*
Y0089220D02*
D03*
X0071110D02*
D03*
Y0093700D02*
D03*
X0070010D02*
D03*
X0071110Y0090280D02*
D03*
X0070010D02*
D03*
X0064650Y0089220D02*
D03*
X0065750D02*
D03*
X0064650Y0090280D02*
D03*
X0065750D02*
D03*
Y0093700D02*
D03*
X0064650D02*
D03*
X0066810Y0090280D02*
D03*
X0067910D02*
D03*
X0062550Y0093700D02*
D03*
X0061450D02*
D03*
X0095100Y0100410D02*
D03*
X0096200Y0094700D02*
D03*
Y0091500D02*
D03*
Y0088300D02*
D03*
Y0085100D02*
D03*
X0095100Y0102910D02*
D03*
X0096200D02*
D03*
X0095100Y0104160D02*
D03*
X0096200D02*
D03*
X0064650Y0094760D02*
D03*
X0065750D02*
D03*
X0067910Y0093700D02*
D03*
X0066810D02*
D03*
X0083090Y0089920D02*
D03*
X0081990D02*
D03*
X0079250Y0085080D02*
D03*
X0078150D02*
D03*
X0060240Y0095810D02*
D03*
X0061340D02*
D03*
Y0088170D02*
D03*
X0060240D02*
D03*
X0084950Y0095900D02*
D03*
X0083850D02*
D03*
X0061450Y0094760D02*
D03*
X0062550D02*
D03*
X0095100Y0101660D02*
D03*
X0096200D02*
D03*
X0095100Y0081900D02*
D03*
X0096200D02*
D03*
D13*
X0086280Y0106700D02*
D03*
X0084780D02*
D03*
D14*
X0079850Y0086330D02*
D03*
Y0087630D02*
D03*
X0078150Y0086330D02*
D03*
Y0087630D02*
D03*
D16*
X0072400Y0090695D02*
D03*
Y0091345D02*
D03*
Y0091995D02*
D03*
Y0092645D02*
D03*
Y0093295D02*
D03*
Y0093945D02*
D03*
X0077200D02*
D03*
Y0093295D02*
D03*
Y0092645D02*
D03*
Y0091995D02*
D03*
Y0091345D02*
D03*
Y0090695D02*
D03*
D17*
X0073175Y0094720D02*
D03*
X0073825D02*
D03*
X0074475D02*
D03*
X0075125D02*
D03*
X0075775D02*
D03*
X0076425D02*
D03*
Y0089920D02*
D03*
X0075775D02*
D03*
X0075125D02*
D03*
X0074475D02*
D03*
X0073825D02*
D03*
X0073175D02*
D03*
M02*
